<svg width="24" height="24" viewBox="0 0 24 24" fill="none" xmlns="http://www.w3.org/2000/svg">
<g clip-path="url(#clip0_117_11194)">
<path d="M3.90932 1.70878C9.25925 0.736069 14.7407 0.736069 20.0907 1.70878C22.2097 2.09406 23.75 3.93965 23.75 6.09342V14.4283C23.75 17.3011 21.2153 19.5136 18.3689 19.1255C16.504 18.8712 14.6277 18.7291 12.75 18.6992V21.584C13.3744 21.6277 13.9959 21.7259 14.6073 21.8788L16.1819 22.2724C16.5837 22.3729 16.8281 22.7801 16.7276 23.1819C16.6271 23.5838 16.2199 23.8281 15.8181 23.7277L14.2435 23.334C13.507 23.1499 12.7535 23.0578 12 23.0578C11.2465 23.0578 10.493 23.1499 9.75655 23.334L8.1819 23.7277C7.78006 23.8281 7.37285 23.5838 7.27239 23.1819C7.17193 22.7801 7.41625 22.3729 7.8181 22.2724L9.39274 21.8788C10.0041 21.7259 10.6256 21.6277 11.25 21.584V18.6992C9.37234 18.7291 7.49602 18.8712 5.63113 19.1255C2.78473 19.5136 0.25 17.3011 0.25 14.4283V6.09342C0.25 3.93965 1.79028 2.09406 3.90932 1.70878Z" fill="#99A3A9"/>
</g>
<defs>
<clipPath id="clip0_117_11194">
<rect width="24" height="24" fill="white"/>
</clipPath>
</defs>
</svg>
