<svg width="24" height="24" viewBox="0 0 24 24" fill="none" xmlns="http://www.w3.org/2000/svg">
<path d="M13.4099 19.5009C12.9957 19.5009 12.6599 19.8367 12.6599 20.2509C12.6599 20.6651 12.9957 21.0009 13.4099 21.0009H19.4099C19.8241 21.0009 20.1599 20.6651 20.1599 20.2509C20.1599 19.8367 19.8241 19.5009 19.4099 19.5009H13.4099Z" fill="#99A3A9"/>
<path d="M14.2039 4.57541L14.294 4.62741C15.0721 5.07662 15.721 5.45121 16.1961 5.81786C16.6976 6.20485 17.0956 6.64905 17.2623 7.27123C17.429 7.89341 17.3064 8.47711 17.0656 9.063C16.8985 9.46966 16.6527 9.92665 16.3566 10.4479L15.7213 10.0703L15.7131 10.0655L8.78779 6.06719L8.14014 5.68548C8.44023 5.17439 8.71061 4.73786 8.97681 4.39291C9.3638 3.89143 9.808 3.4934 10.4302 3.32669C11.0524 3.15997 11.6361 3.28258 12.222 3.52338C12.777 3.75151 13.4259 4.12615 14.2039 4.57541Z" fill="#99A3A9"/>
<path d="M7.38872 6.98375L3.91075 13.0077C3.61296 13.5225 3.3775 13.9295 3.29026 14.3925C3.20303 14.8555 3.27421 15.3204 3.36424 15.9082L3.3885 16.0671C3.55469 17.1585 3.69167 18.058 3.89827 18.7402C4.11434 19.4536 4.44649 20.0712 5.09977 20.4483C5.75304 20.8255 6.4539 20.8044 7.17979 20.6348C7.87385 20.4726 8.72139 20.1415 9.74962 19.7397L9.89936 19.6813C10.4535 19.4653 10.8916 19.2945 11.249 18.9875C11.6064 18.6804 11.8411 18.273 12.1381 17.7577L15.6078 11.7478L14.959 11.3622L8.02905 7.36118L7.38872 6.98375Z" fill="#99A3A9"/>
</svg>
