<svg width="48" height="48" viewBox="0 0 48 48" fill="none" xmlns="http://www.w3.org/2000/svg">
<path fill-rule="evenodd" clip-rule="evenodd" d="M14 22.5C13.1716 22.5 12.5 23.1716 12.5 24C12.5 24.8284 13.1716 25.5 14 25.5L30 25.5L30 30C30 31.858 30 32.787 29.8769 33.5643C29.1992 37.8433 25.8433 41.1992 21.5643 41.8769C20.787 42 19.858 42 18 42C16.142 42 15.213 42 14.4357 41.8769C10.1567 41.1992 6.80083 37.8433 6.12311 33.5643C6 32.787 6 31.858 6 30L6 18C6 16.142 6 15.213 6.12312 14.4357C6.80083 10.1567 10.1567 6.80083 14.4357 6.12312C15.213 6 16.142 6 18 6C19.858 6 20.787 6 21.5643 6.12312C25.8433 6.80083 29.1992 10.1567 29.8769 14.4357C30 15.213 30 16.142 30 18L30 22.5L14 22.5ZM30 22.5L39.621 22.5C38.9661 21.8547 38.002 21.0875 36.594 19.9711L33.0681 17.1754C32.4189 16.6607 32.3099 15.7172 32.8246 15.0681C33.3393 14.4189 34.2828 14.3099 34.9319 14.8246L38.5295 17.6771C39.8745 18.7435 40.9843 19.6234 41.775 20.411C42.5863 21.2193 43.2589 22.1163 43.4415 23.2627C43.4804 23.5069 43.5 23.7532 43.5 24C43.5 24.2468 43.4804 24.4931 43.4415 24.7373C43.2589 25.8837 42.5863 26.7808 41.775 27.589C40.9843 28.3766 39.8745 29.2565 38.5295 30.3229L34.9319 33.1754C34.2828 33.6901 33.3393 33.5811 32.8246 32.9319C32.3099 32.2828 32.4189 31.3393 33.0681 30.8246L36.594 28.0289C38.002 26.9125 38.9661 26.1453 39.621 25.5L30 25.5L30 22.5Z" fill="#2150F5"/>
</svg>
