<svg width="27" height="23" viewBox="0 0 27 23" fill="none" xmlns="http://www.w3.org/2000/svg">
<path d="M25.5625 3.21875H1.9375C1.39937 3.21875 0.953125 2.44438 0.953125 1.90625C0.953125 1.36812 1.39937 0.921875 1.9375 0.921875H25.5625C26.1006 0.921875 26.5469 1.36812 26.5469 1.90625C26.5469 2.44438 26.1006 3.21875 25.5625 3.21875ZM25.5625 9.78125H1.9375C1.39937 9.78125 0.953125 9.00688 0.953125 8.46875C0.953125 7.93062 1.39937 7.48438 1.9375 7.48438H25.5625C26.1006 7.48438 26.5469 7.93062 26.5469 8.46875C26.5469 9.00688 26.1006 9.78125 25.5625 9.78125ZM25.5625 16.3438H1.9375C1.39937 16.3438 0.953125 15.5694 0.953125 15.0312C0.953125 14.4931 1.39937 14.0469 1.9375 14.0469H25.5625C26.1006 14.0469 26.5469 14.4931 26.5469 15.0312C26.5469 15.5694 26.1006 16.3438 25.5625 16.3438ZM25.5625 22.9062H1.9375C1.39937 22.9062 0.953125 22.1319 0.953125 21.5938C0.953125 21.0556 1.39937 20.6094 1.9375 20.6094H25.5625C26.1006 20.6094 26.5469 21.0556 26.5469 21.5938C26.5469 22.1319 26.1006 22.9062 25.5625 22.9062Z" fill="#1635A3"/>
</svg>
