<svg width="20" height="20" viewBox="0 0 20 20" fill="none" xmlns="http://www.w3.org/2000/svg">
<path d="M17.1583 18.3333C17.1583 15.1083 13.95 12.5 10 12.5C6.05001 12.5 2.84167 15.1083 2.84167 18.3333M10 9.99999C11.1051 9.99999 12.1649 9.561 12.9463 8.7796C13.7277 7.9982 14.1667 6.93839 14.1667 5.83332C14.1667 4.72825 13.7277 3.66845 12.9463 2.88704C12.1649 2.10564 11.1051 1.66666 10 1.66666C8.89494 1.66666 7.83513 2.10564 7.05373 2.88704C6.27233 3.66845 5.83334 4.72825 5.83334 5.83332C5.83334 6.93839 6.27233 7.9982 7.05373 8.7796C7.83513 9.561 8.89494 9.99999 10 9.99999Z" stroke="#FAFDFF" stroke-width="2" stroke-linecap="round" stroke-linejoin="round"/>
</svg>
