<svg width="459" height="66" viewBox="0 0 459 66" fill="none" xmlns="http://www.w3.org/2000/svg">
<path d="M8.84 18.984C11.528 18.984 13.5547 18.216 14.92 16.68C16.328 15.144 17.032 13.0747 17.032 10.472C17.032 7.57067 16.328 5.30933 14.92 3.688C13.5547 2.06666 11.528 1.256 8.84 1.256C6.152 1.256 4.12533 2.06666 2.76 3.688C1.39467 5.30933 0.712 7.57067 0.712 10.472C0.712 13.0747 1.39467 15.144 2.76 16.68C4.168 18.216 6.19467 18.984 8.84 18.984ZM31.624 1.832H26.44L6.344 41H11.464L31.624 1.832ZM8.84 15.656C5.59733 15.656 3.976 13.8853 3.976 10.344C3.976 8.38133 4.36 6.93066 5.128 5.992C5.93867 5.05333 7.176 4.584 8.84 4.584C10.5467 4.584 11.784 5.05333 12.552 5.992C13.3627 6.93066 13.768 8.38133 13.768 10.344C13.768 13.8853 12.1253 15.656 8.84 15.656ZM29.192 41.64C31.8373 41.64 33.864 40.872 35.272 39.336C36.68 37.7573 37.384 35.688 37.384 33.128C37.384 30.2267 36.68 27.9653 35.272 26.344C33.9067 24.68 31.88 23.848 29.192 23.848C26.504 23.848 24.456 24.68 23.048 26.344C21.6827 27.9653 21 30.2267 21 33.128C21 35.688 21.704 37.7573 23.112 39.336C24.52 40.872 26.5467 41.64 29.192 41.64ZM29.192 38.248C25.9493 38.248 24.328 36.4987 24.328 33C24.328 31.0373 24.712 29.5867 25.48 28.648C26.2907 27.7093 27.528 27.24 29.192 27.24C30.8987 27.24 32.136 27.7093 32.904 28.648C33.7147 29.5867 34.12 31.0373 34.12 33C34.12 36.4987 32.4773 38.248 29.192 38.248ZM66.9825 0.231998C67.7932 5.224 68.1985 8.89333 68.1985 11.24C68.1985 11.7947 68.1132 12.4987 67.9425 13.352C69.0518 14.888 70.5238 15.656 72.3585 15.656C73.6812 15.656 74.8118 15.2293 75.7505 14.376C76.6892 13.5227 77.1585 12.456 77.1585 11.176C77.1585 9.55467 76.7532 6.29067 75.9425 1.384L81.1905 0.231998C82.0438 5.096 82.4705 8.76533 82.4705 11.24C82.4705 13.1173 82.0438 14.824 81.1905 16.36C80.3372 17.8533 79.1638 19.0267 77.6705 19.88C76.2198 20.7333 74.5772 21.16 72.7425 21.16C71.2065 21.16 69.7985 20.8827 68.5185 20.328C67.2812 19.7733 66.2998 19.0053 65.5745 18.024C64.8918 19.0053 63.9105 19.7733 62.6305 20.328C61.3505 20.8827 59.9212 21.16 58.3425 21.16C57.1905 21.16 56.1665 20.9893 55.2705 20.648C54.4172 20.3067 53.7772 19.816 53.3505 19.176C53.3932 20.1147 53.4145 21.736 53.4145 24.04V41H48.1025V24.104C48.1025 19.9227 47.8892 16.296 47.4625 13.224C47.0358 10.152 46.1825 6.41866 44.9025 2.024L50.0225 0.231998L52.9025 11.432C53.6705 14.248 55.3558 15.656 57.9585 15.656C59.3238 15.656 60.4758 15.2293 61.4145 14.376C62.3958 13.5227 62.8865 12.456 62.8865 11.176C62.8865 9.55467 62.4812 6.29067 61.6705 1.384L66.9825 0.231998ZM104.664 9.768C106.755 9.768 108.76 10.3653 110.68 11.56C112.643 12.712 114.2 14.248 115.352 16.168C116.547 18.0453 117.144 20.0293 117.144 22.12C117.144 24.2107 116.547 26.216 115.352 28.136C114.2 30.056 112.643 31.6133 110.68 32.808C108.76 33.96 106.755 34.536 104.664 34.536C102.573 34.536 100.547 33.9387 98.584 32.744C96.664 31.5493 95.1067 30.0133 93.912 28.136C92.7173 26.216 92.12 24.2107 92.12 22.12C92.12 20.0293 92.7173 18.0453 93.912 16.168C95.1067 14.248 96.664 12.712 98.584 11.56C100.547 10.3653 102.573 9.768 104.664 9.768ZM104.664 29.416C105.859 29.416 107.011 29.0747 108.12 28.392C109.272 27.6667 110.211 26.7493 110.936 25.64C111.661 24.488 112.024 23.3147 112.024 22.12C112.024 20.968 111.661 19.8373 110.936 18.728C110.211 17.576 109.272 16.6587 108.12 15.976C107.011 15.2507 105.859 14.888 104.664 14.888C103.469 14.888 102.296 15.2507 101.144 15.976C99.992 16.6587 99.0533 17.576 98.328 18.728C97.6027 19.8373 97.24 20.968 97.24 22.12C97.24 23.3147 97.6027 24.488 98.328 25.64C99.0533 26.7493 99.992 27.6667 101.144 28.392C102.296 29.0747 103.469 29.416 104.664 29.416ZM139.676 46.248C142.364 46.248 144.412 45.5653 145.82 44.2C147.271 42.8773 147.996 40.936 147.996 38.376V18.344H157.468V28.072C157.468 29.1387 157.724 29.928 158.236 30.44C158.748 30.9093 159.559 31.144 160.668 31.144H162.268C162.695 31.144 162.908 32.808 162.908 36.136C162.908 39.3787 162.695 41 162.268 41H161.18C159.516 41 158.257 40.6373 157.404 39.912C157.191 43.0267 156.359 45.8 154.908 48.232C153.5 50.7067 151.516 52.6267 148.956 53.992C146.439 55.4 143.473 56.104 140.06 56.104H137.628L136.86 46.248H139.676ZM171.85 31.144C172.277 31.144 172.49 32.808 172.49 36.136C172.49 38.2267 172.426 39.5707 172.298 40.168C172.17 40.7227 172.021 41 171.85 41H162.25C161.823 41 161.61 39.3787 161.61 36.136C161.61 32.808 161.823 31.144 162.25 31.144H171.85ZM181.475 31.144C181.902 31.144 182.115 32.808 182.115 36.136C182.115 38.2267 182.051 39.5707 181.923 40.168C181.795 40.7227 181.646 41 181.475 41H171.875C171.448 41 171.235 39.3787 171.235 36.136C171.235 32.808 171.448 31.144 171.875 31.144H181.475ZM188.284 31.144C189.18 31.144 189.884 30.9307 190.396 30.504C190.908 30.0347 191.164 29.3947 191.164 28.584V18.344H200.572V28.392C200.572 30.2267 201.532 31.144 203.452 31.144H205.5C205.927 31.144 206.14 32.7867 206.14 36.072C206.14 39.3573 205.927 41 205.5 41H203.004C199.505 41 197.095 40.0613 195.772 38.184C194.961 39.1653 193.959 39.8907 192.764 40.36C191.569 40.7867 190.076 41 188.284 41H181.5C181.073 41 180.86 39.3787 180.86 36.136C180.86 32.808 181.073 31.144 181.5 31.144H188.284ZM200.892 4.648V12.584H182.46V4.648H200.892ZM215.1 31.144C215.527 31.144 215.74 32.808 215.74 36.136C215.74 38.2267 215.676 39.5707 215.548 40.168C215.42 40.7227 215.271 41 215.1 41H205.5C205.073 41 204.86 39.3787 204.86 36.136C204.86 32.808 205.073 31.144 205.5 31.144H215.1ZM224.725 31.144C225.152 31.144 225.365 32.808 225.365 36.136C225.365 38.2267 225.301 39.5707 225.173 40.168C225.045 40.7227 224.896 41 224.725 41H215.125C214.698 41 214.485 39.3787 214.485 36.136C214.485 32.808 214.698 31.144 215.125 31.144H224.725ZM231.534 31.144C232.43 31.144 233.134 30.9307 233.646 30.504C234.158 30.0347 234.414 29.3947 234.414 28.584V18.344H243.822V28.392C243.822 30.2267 244.782 31.144 246.702 31.144H248.75C249.177 31.144 249.39 32.7867 249.39 36.072C249.39 39.3573 249.177 41 248.75 41H246.254C242.755 41 240.345 40.0613 239.022 38.184C238.211 39.1653 237.209 39.8907 236.014 40.36C234.819 40.7867 233.326 41 231.534 41H224.75C224.323 41 224.11 39.3787 224.11 36.136C224.11 32.808 224.323 31.144 224.75 31.144H231.534ZM238.19 46.824V54.76H219.758V46.824H238.19ZM224.942 65.128V57.448H233.006V65.128H224.942ZM258.35 31.144C258.777 31.144 258.99 32.808 258.99 36.136C258.99 38.2267 258.926 39.5707 258.798 40.168C258.67 40.7227 258.521 41 258.35 41H248.75C248.323 41 248.11 39.3787 248.11 36.136C248.11 32.808 248.323 31.144 248.75 31.144H258.35ZM267.975 31.144C268.402 31.144 268.615 32.808 268.615 36.136C268.615 38.2267 268.551 39.5707 268.423 40.168C268.295 40.7227 268.146 41 267.975 41H258.375C257.948 41 257.735 39.3787 257.735 36.136C257.735 32.808 257.948 31.144 258.375 31.144H267.975ZM277.6 31.144C278.027 31.144 278.24 32.808 278.24 36.136C278.24 38.2267 278.176 39.5707 278.048 40.168C277.92 40.7227 277.771 41 277.6 41H268C267.573 41 267.36 39.3787 267.36 36.136C267.36 32.808 267.573 31.144 268 31.144H277.6ZM287.225 31.144C287.652 31.144 287.865 32.808 287.865 36.136C287.865 38.2267 287.801 39.5707 287.673 40.168C287.545 40.7227 287.396 41 287.225 41H277.625C277.198 41 276.985 39.3787 276.985 36.136C276.985 32.808 277.198 31.144 277.625 31.144H287.225ZM302.61 31.144C303.421 31.144 304.082 30.9093 304.594 30.44C305.149 29.9707 305.426 29.352 305.426 28.584V18.344H314.706V29.032C314.706 32.744 313.597 35.6667 311.378 37.8C309.202 39.9333 306.258 41 302.546 41H287.25C286.823 41 286.61 39.3787 286.61 36.136C286.61 32.808 286.823 31.144 287.25 31.144H302.61ZM306.322 46.824V54.76H287.89V46.824H306.322ZM315.989 46.248C318.677 46.248 320.725 45.5653 322.133 44.2C323.583 42.8773 324.309 40.936 324.309 38.376V18.344H333.781V28.072C333.781 29.1387 334.037 29.928 334.549 30.44C335.061 30.9093 335.871 31.144 336.981 31.144H338.581C339.007 31.144 339.221 32.808 339.221 36.136C339.221 39.3787 339.007 41 338.581 41H337.493C335.829 41 334.57 40.6373 333.717 39.912C333.503 43.0267 332.671 45.8 331.221 48.232C329.813 50.7067 327.829 52.6267 325.269 53.992C322.751 55.4 319.786 56.104 316.373 56.104H313.941L313.172 46.248H315.989ZM348.163 31.144C348.589 31.144 348.803 32.808 348.803 36.136C348.803 38.2267 348.739 39.5707 348.611 40.168C348.483 40.7227 348.333 41 348.163 41H338.562C338.136 41 337.922 39.3787 337.922 36.136C337.922 32.808 338.136 31.144 338.562 31.144H348.163ZM357.788 31.144C358.214 31.144 358.428 32.808 358.428 36.136C358.428 38.2267 358.364 39.5707 358.236 40.168C358.108 40.7227 357.958 41 357.788 41H348.188C347.761 41 347.547 39.3787 347.547 36.136C347.547 32.808 347.761 31.144 348.188 31.144H357.788ZM367.413 31.144C367.839 31.144 368.053 32.808 368.053 36.136C368.053 38.2267 367.989 39.5707 367.861 40.168C367.733 40.7227 367.583 41 367.413 41H357.812C357.386 41 357.172 39.3787 357.172 36.136C357.172 32.808 357.386 31.144 357.812 31.144H367.413ZM377.038 31.144C377.464 31.144 377.678 32.808 377.678 36.136C377.678 38.2267 377.614 39.5707 377.486 40.168C377.358 40.7227 377.208 41 377.038 41H367.438C367.011 41 366.797 39.3787 366.797 36.136C366.797 32.808 367.011 31.144 367.438 31.144H377.038ZM386.663 31.144C387.089 31.144 387.303 32.808 387.303 36.136C387.303 38.2267 387.239 39.5707 387.111 40.168C386.983 40.7227 386.833 41 386.663 41H377.062C376.636 41 376.422 39.3787 376.422 36.136C376.422 32.808 376.636 31.144 377.062 31.144H386.663ZM396.288 31.144C396.714 31.144 396.928 32.808 396.928 36.136C396.928 38.2267 396.864 39.5707 396.736 40.168C396.608 40.7227 396.458 41 396.288 41H386.688C386.261 41 386.047 39.3787 386.047 36.136C386.047 32.808 386.261 31.144 386.688 31.144H396.288ZM444.953 31.144C446.446 31.144 447.513 30.8667 448.153 30.312C448.793 29.7573 449.113 28.8187 449.113 27.496C449.113 26.1733 448.793 25.2133 448.153 24.616C447.555 24.0187 446.489 23.72 444.953 23.72H402.905V15.336L423.513 0.231998L428.312 7.528L417.945 14.504H445.273C453.934 14.504 458.265 18.8773 458.265 27.624C458.265 31.8907 457.113 35.1973 454.809 37.544C452.547 39.848 449.262 41 444.953 41H396.312C395.886 41 395.672 39.3787 395.672 36.136C395.672 32.808 395.886 31.144 396.312 31.144H444.953Z" fill="#FFF110"/>
</svg>
