<svg width="1221" height="201" viewBox="0 0 1221 201" fill="none" xmlns="http://www.w3.org/2000/svg">
<path d="M1047.18 107.104C1001.36 85.6314 965.012 76.1759 905.633 76.3492C852.01 76.5058 793.408 89.2887 743.34 98.4445C681.352 109.78 559.994 117.065 525.005 75.9631C497.836 44.0484 540.38 7.5054 605.84 19.1147C631.076 23.5904 643.758 42.5216 632.263 55.2171C619.847 68.9293 583.488 74.8836 558.373 77.5666C490.925 84.772 446.865 49.0447 386.133 41.6252C297.527 33.0596 187.589 85.1741 144.119 103.249C140.396 104.797 151.868 87.66 151.927 84.9511C157.579 75.7288 154.524 74.3443 150.89 83.99C150.785 88.819 135.329 105.892 147.197 103.404C155.759 101.609 173.676 101.548 183.236 101.755" stroke="#466DF7" stroke-width="3" stroke-linecap="round" stroke-dasharray="5 8"/>
<path d="M1197.42 152.176C1195.5 152.176 1194.02 151.856 1193 151.216V153.616V178H1178.79V153.808C1178.79 147.6 1178.47 142.288 1177.83 137.872C1177.19 133.456 1175.91 128.112 1173.99 121.84L1187.72 117.04L1191.85 133.648C1192.17 134.928 1192.68 135.856 1193.38 136.432C1194.09 137.008 1194.98 137.296 1196.07 137.296C1197.16 137.296 1198.06 136.976 1198.76 136.336C1199.53 135.696 1199.91 134.832 1199.91 133.744C1199.91 132.336 1199.27 127.696 1197.99 119.824L1212.1 117.04C1213.38 125.04 1214.02 130.992 1214.02 134.896C1214.02 138.224 1213.32 141.2 1211.91 143.824C1210.5 146.448 1208.52 148.496 1205.96 149.968C1203.46 151.44 1200.62 152.176 1197.42 152.176Z" fill="#DAE9F0"/>
<path d="M1147.02 162.024C1147.02 161.464 1146.68 161.184 1146.01 161.184H1141.43V156.336C1141.43 154.864 1141.85 153.68 1142.7 152.784C1143.56 151.888 1144.72 151.44 1146.18 151.44H1149.66L1149.87 155.016H1146.23C1145.86 155.016 1145.55 155.136 1145.31 155.376C1145.07 155.6 1144.95 155.912 1144.95 156.312V157.536H1146.59C1147.98 157.536 1148.99 157.888 1149.61 158.592C1150.23 159.296 1150.55 160.304 1150.55 161.616C1150.55 162.72 1150.25 163.728 1149.66 164.64C1149.08 165.568 1148.27 166.304 1147.23 166.848C1146.19 167.392 1145.03 167.664 1143.73 167.664H1141.88C1139.79 167.664 1138.16 167.056 1137.01 165.84C1135.87 164.64 1135.31 162.968 1135.31 160.824V155.904H1138.86V160.728C1138.86 161.816 1139.11 162.624 1139.6 163.152C1140.1 163.696 1140.87 163.968 1141.93 163.968H1143.83C1144.88 163.968 1145.67 163.792 1146.2 163.44C1146.75 163.088 1147.02 162.616 1147.02 162.024ZM1158.78 158.304C1158.86 158.304 1158.91 158.416 1158.95 158.64C1158.99 158.864 1159.02 159.376 1159.02 160.176C1159.02 160.944 1158.99 161.44 1158.95 161.664C1158.91 161.888 1158.86 162 1158.78 162H1157.82C1156.41 162 1155.34 161.6 1154.6 160.8C1153.88 160 1153.52 158.856 1153.52 157.368V146.568H1157.07V157.104C1157.07 157.52 1157.15 157.824 1157.31 158.016C1157.47 158.208 1157.73 158.304 1158.08 158.304H1158.78ZM1172.94 158.304C1173.02 158.304 1173.08 158.416 1173.11 158.64C1173.16 158.864 1173.18 159.376 1173.18 160.176C1173.18 160.944 1173.16 161.44 1173.11 161.664C1173.08 161.888 1173.02 162 1172.94 162C1172.29 162 1171.76 162.12 1171.36 162.36C1170.96 162.616 1170.51 163.128 1170.01 163.896L1167.69 167.616H1166.08C1164.32 167.616 1162.94 167.136 1161.95 166.176C1160.96 165.232 1160.46 163.904 1160.46 162.192V162H1158.78C1158.62 162 1158.54 161.392 1158.54 160.176C1158.54 158.928 1158.62 158.304 1158.78 158.304H1160.46V156.888C1160.46 155.224 1160.89 153.912 1161.76 152.952C1162.62 151.992 1163.81 151.512 1165.31 151.512C1166.73 151.512 1167.86 151.936 1168.69 152.784C1169.53 153.616 1169.94 154.752 1169.94 156.192C1169.94 157.168 1169.66 158.088 1169.1 158.952C1168.56 159.816 1167.82 160.52 1166.89 161.064C1165.97 161.592 1164.96 161.864 1163.87 161.88V162.072C1163.87 162.808 1164.03 163.344 1164.35 163.68C1164.67 164.016 1165.2 164.184 1165.93 164.184L1167.45 161.736C1168.05 160.76 1168.6 160.04 1169.08 159.576C1169.56 159.096 1170.09 158.768 1170.66 158.592C1171.24 158.4 1172 158.304 1172.94 158.304ZM1166.56 156.312C1166.56 155.896 1166.45 155.576 1166.22 155.352C1166 155.128 1165.68 155.016 1165.26 155.016C1164.33 155.016 1163.87 155.624 1163.87 156.84V158.352C1164.72 158.352 1165.37 158.176 1165.84 157.824C1166.32 157.456 1166.56 156.952 1166.56 156.312ZM1175.48 158.304C1175.82 158.304 1176.08 158.224 1176.27 158.064C1176.47 157.888 1176.56 157.648 1176.56 157.344V153.504H1180.09V157.272C1180.09 157.96 1180.45 158.304 1181.17 158.304H1181.94C1182.1 158.304 1182.18 158.92 1182.18 160.152C1182.18 161.384 1182.1 162 1181.94 162H1181C1179.69 162 1178.79 161.648 1178.29 160.944C1177.99 161.312 1177.61 161.584 1177.16 161.76C1176.71 161.92 1176.15 162 1175.48 162H1172.94C1172.78 162 1172.7 161.392 1172.7 160.176C1172.7 158.928 1172.78 158.304 1172.94 158.304H1175.48ZM1180.21 148.368V151.344H1173.3V148.368H1180.21ZM1182.63 158.304C1182.97 158.304 1183.22 158.232 1183.38 158.088C1183.54 157.944 1183.62 157.704 1183.62 157.368V156.84C1183.62 155.272 1184.07 154.032 1184.96 153.12C1185.86 152.208 1187.07 151.752 1188.61 151.752C1190.15 151.752 1191.33 152.2 1192.16 153.096C1192.99 153.976 1193.41 155.24 1193.41 156.888V157.224C1193.41 157.608 1193.49 157.888 1193.65 158.064C1193.83 158.224 1194.07 158.304 1194.39 158.304H1195.09C1195.25 158.304 1195.33 158.928 1195.33 160.176C1195.33 161.392 1195.25 162 1195.09 162H1194.44C1193.11 162 1192.19 161.656 1191.68 160.968C1190.95 161.656 1189.87 162 1188.47 162C1187.75 162 1187.13 161.904 1186.62 161.712C1186.11 161.52 1185.72 161.264 1185.47 160.944C1185.16 161.312 1184.78 161.584 1184.31 161.76C1183.87 161.92 1183.31 162 1182.63 162H1181.94C1181.78 162 1181.7 161.392 1181.7 160.176C1181.7 158.928 1181.78 158.304 1181.94 158.304H1182.63ZM1189.98 156.888C1189.98 155.8 1189.48 155.256 1188.49 155.256C1187.51 155.256 1187.03 155.8 1187.03 156.888C1187.03 157.368 1187.15 157.744 1187.39 158.016C1187.64 158.272 1188.01 158.4 1188.49 158.4C1189 158.4 1189.38 158.28 1189.62 158.04C1189.86 157.784 1189.98 157.4 1189.98 156.888ZM1197.63 158.304C1197.97 158.304 1198.23 158.224 1198.42 158.064C1198.61 157.888 1198.71 157.648 1198.71 157.344V153.504H1202.24V157.272C1202.24 157.96 1202.6 158.304 1203.32 158.304H1204.09C1204.25 158.304 1204.33 158.92 1204.33 160.152C1204.33 161.384 1204.25 162 1204.09 162H1203.15C1201.84 162 1200.93 161.648 1200.44 160.944C1200.13 161.312 1199.76 161.584 1199.31 161.76C1198.86 161.92 1198.3 162 1197.63 162H1195.09C1194.93 162 1194.85 161.392 1194.85 160.176C1194.85 158.928 1194.93 158.304 1195.09 158.304H1197.63ZM1200.13 164.184V167.16H1193.21V164.184H1200.13ZM1206.99 158.304C1206.16 157.728 1205.74 156.888 1205.74 155.784C1205.74 154.904 1205.94 154.096 1206.34 153.36C1206.76 152.608 1207.33 152.008 1208.07 151.56C1208.82 151.112 1209.69 150.888 1210.69 150.888C1212.27 150.888 1213.49 151.36 1214.33 152.304C1215.18 153.248 1215.61 154.576 1215.61 156.288V157.152C1215.61 158.736 1215.07 159.944 1214 160.776C1212.93 161.592 1211.37 162 1209.34 162H1204.09C1203.93 162 1203.85 161.392 1203.85 160.176C1203.85 158.928 1203.93 158.304 1204.09 158.304H1206.49H1206.99ZM1211.79 158.16C1212.08 157.856 1212.22 157.344 1212.22 156.624V156.384C1212.22 155.728 1212.09 155.232 1211.81 154.896C1211.54 154.544 1211.15 154.368 1210.64 154.368C1210.24 154.368 1209.89 154.512 1209.61 154.8C1209.33 155.072 1209.2 155.416 1209.2 155.832C1209.2 156.344 1209.39 156.784 1209.77 157.152C1210.17 157.504 1210.85 157.84 1211.79 158.16ZM1214.07 146.016V148.992H1207.16V146.016H1214.07Z" fill="#2E3133"/>
<path d="M1088.16 129.592C1088.16 130.936 1088.88 131.608 1090.32 131.608H1091.76C1092.08 131.608 1092.24 132.856 1092.24 135.352C1092.24 137.784 1092.08 139 1091.76 139H1090.51C1089.43 139 1088.61 138.824 1088.07 138.472C1087.91 140.776 1087.23 142.824 1086.05 144.616C1084.9 146.408 1083.33 147.8 1081.35 148.792C1079.36 149.816 1077.09 150.328 1074.53 150.328H1072.51C1068.32 150.328 1065.07 149.112 1062.77 146.68C1060.5 144.28 1059.36 140.936 1059.36 136.648V126.808H1066.47V136.456C1066.47 138.632 1066.96 140.248 1067.95 141.304C1068.95 142.392 1070.5 142.936 1072.61 142.936H1074.53C1076.61 142.936 1078.23 142.424 1079.38 141.4C1080.53 140.376 1081.11 138.92 1081.11 137.032V122.008H1088.16V129.592ZM1068.67 121.912V115.96H1076.07V121.912H1068.67ZM1103.3 131.608C1103.91 131.608 1104.41 131.432 1104.79 131.08C1105.21 130.728 1105.41 130.264 1105.41 129.688V122.008H1112.37V130.024C1112.37 132.808 1111.54 135 1109.88 136.6C1108.25 138.2 1106.04 139 1103.25 139H1091.78C1091.46 139 1091.3 137.784 1091.3 135.352C1091.3 132.856 1091.46 131.608 1091.78 131.608H1103.3ZM1106.09 143.368V149.32H1092.26V143.368H1106.09ZM1125.44 108.136V131.608H1129.09C1129.73 131.608 1130.24 131.432 1130.63 131.08C1131.04 130.728 1131.25 130.232 1131.25 129.592V108.136H1138.31V129.352C1138.31 130.856 1139.04 131.608 1140.52 131.608H1142.05C1142.21 131.608 1142.32 131.832 1142.39 132.28C1142.48 132.728 1142.53 133.752 1142.53 135.352C1142.53 136.888 1142.48 137.88 1142.39 138.328C1142.32 138.776 1142.21 139 1142.05 139H1140.37C1137.68 139 1135.84 138.296 1134.85 136.888C1133.64 138.296 1131.78 139 1129.28 139H1118.34V108.136H1125.44ZM1155.66 130.024C1155.66 132.808 1154.83 135 1153.17 136.6C1151.54 138.2 1149.33 139 1146.54 139H1142.03C1141.71 139 1141.55 137.784 1141.55 135.352C1141.55 132.856 1141.71 131.608 1142.03 131.608H1146.54C1147.18 131.608 1147.7 131.432 1148.08 131.08C1148.5 130.728 1148.7 130.264 1148.7 129.688V122.008H1155.66V130.024ZM1146.54 117.688V111.736H1153.94V117.688H1146.54ZM1163.28 107.032C1162.1 107.032 1161.33 107.496 1160.98 108.424L1159.78 111.448L1155.27 109.432L1156.9 105.064C1157.51 103.464 1158.29 102.392 1159.25 101.848C1160.18 101.272 1161.57 100.984 1163.43 100.984H1175.14V107.032H1163.28ZM1170.82 111.928V139H1163.71V111.928H1170.82Z" fill="#F53A21"/>
<rect x="1" y="116" width="182" height="48" rx="12" stroke="#2150F5"/>
<path d="M25.528 135.533C25.8222 135.241 25.8243 134.766 25.5327 134.472C25.2411 134.178 24.7662 134.176 24.472 134.467L22.6773 136.246C22.0013 136.916 21.4489 137.464 21.0571 137.951C20.6496 138.459 20.3547 138.974 20.2759 139.592C20.2414 139.863 20.2414 140.137 20.2759 140.408C20.3547 141.026 20.6496 141.541 21.0571 142.049C21.4489 142.536 22.0013 143.084 22.6773 143.754L24.472 145.533C24.7662 145.824 25.2411 145.822 25.5327 145.528C25.8243 145.234 25.8222 144.759 25.528 144.467L23.765 142.72C23.0495 142.011 22.5587 141.523 22.2266 141.109C22.1187 140.975 22.0345 140.857 21.9691 140.75H37C37.4142 140.75 37.75 140.414 37.75 140C37.75 139.586 37.4142 139.25 37 139.25H21.9691C22.0345 139.143 22.1187 139.025 22.2266 138.891C22.5587 138.477 23.0495 137.989 23.765 137.28L25.528 135.533Z" fill="#2150F5"/>
<path d="M55.986 142.056C56.046 142.056 56.088 142.122 56.112 142.254C56.148 142.386 56.166 142.656 56.166 143.064C56.166 143.448 56.148 143.7 56.112 143.82C56.088 143.94 56.046 144 55.986 144H55.446C54.486 144 53.76 143.718 53.268 143.154C52.776 142.59 52.53 141.792 52.53 140.76V132.372H54.384V140.634C54.384 141.126 54.474 141.486 54.654 141.714C54.846 141.942 55.146 142.056 55.554 142.056H55.986ZM58.3502 142.056C58.0742 141.804 57.8522 141.486 57.6842 141.102C57.5162 140.718 57.4322 140.328 57.4322 139.932C57.4322 139.26 57.5882 138.66 57.9002 138.132C58.2122 137.592 58.6382 137.172 59.1782 136.872C59.7182 136.56 60.3242 136.404 60.9962 136.404C61.6322 136.404 62.2022 136.554 62.7062 136.854C63.2222 137.154 63.6242 137.562 63.9122 138.078C64.2122 138.582 64.3622 139.146 64.3622 139.77C64.3622 140.226 64.2542 140.658 64.0382 141.066C63.8342 141.474 63.5522 141.804 63.1922 142.056H65.3882C65.8322 142.056 66.1682 141.978 66.3962 141.822C66.6242 141.666 66.7382 141.444 66.7382 141.156C66.7382 140.94 66.6842 140.736 66.5762 140.544C66.4802 140.34 66.2822 140.088 65.9822 139.788L62.4182 136.026L63.7502 134.64L67.4042 138.564C67.8242 139.008 68.1302 139.446 68.3222 139.878C68.5142 140.31 68.6102 140.754 68.6102 141.21C68.6102 142.05 68.3222 142.728 67.7462 143.244C67.1702 143.748 66.3842 144 65.3882 144H63.3722C62.5922 144 62.0282 143.982 61.6802 143.946C61.3442 143.898 61.0682 143.808 60.8522 143.676C60.6362 143.796 60.3302 143.88 59.9342 143.928C59.5502 143.976 58.9982 144 58.2782 144H55.9922C55.8722 144 55.8122 143.688 55.8122 143.064C55.8122 142.392 55.8722 142.056 55.9922 142.056H58.3502ZM60.8162 142.038C61.3802 141.798 61.8122 141.498 62.1122 141.138C62.4122 140.778 62.5622 140.376 62.5622 139.932C62.5622 139.44 62.4122 139.044 62.1122 138.744C61.8122 138.432 61.4102 138.276 60.9062 138.276C60.4022 138.276 59.9942 138.432 59.6822 138.744C59.3822 139.044 59.2322 139.44 59.2322 139.932C59.2322 140.844 59.7602 141.546 60.8162 142.038ZM84.95 142.056C85.334 142.056 85.64 141.96 85.868 141.768C86.108 141.564 86.228 141.288 86.228 140.94V138.024H88.1V140.85C88.1 141.654 88.514 142.056 89.342 142.056H89.954C90.074 142.056 90.134 142.392 90.134 143.064C90.134 143.688 90.074 144 89.954 144H89.27C88.202 144 87.494 143.676 87.146 143.028C86.726 143.676 85.994 144 84.95 144H78.776C77.708 144 76.898 143.724 76.346 143.172C75.794 142.608 75.518 141.816 75.518 140.796V138.024H77.372V140.544C77.372 141.048 77.492 141.426 77.732 141.678C77.972 141.93 78.35 142.056 78.866 142.056H84.95ZM84.248 134.928V136.656H79.352V134.928H84.248ZM90.3851 142.056C90.7811 142.056 91.0631 141.978 91.2311 141.822C91.4111 141.654 91.5011 141.396 91.5011 141.048V140.418C91.5011 139.266 91.8191 138.354 92.4551 137.682C93.1031 137.01 93.9791 136.674 95.0831 136.674C96.1871 136.674 97.0331 136.998 97.6211 137.646C98.2091 138.282 98.5031 139.2 98.5031 140.4V140.814C98.5031 141.258 98.5931 141.576 98.7731 141.768C98.9651 141.96 99.2471 142.056 99.6191 142.056H100.069C100.189 142.056 100.249 142.392 100.249 143.064C100.249 143.688 100.189 144 100.069 144H99.6191C98.5751 144 97.8911 143.664 97.5671 142.992C97.3151 143.328 96.9611 143.58 96.5051 143.748C96.0491 143.916 95.5511 144 95.0111 144C94.3991 144 93.8831 143.916 93.4631 143.748C93.0431 143.568 92.7371 143.322 92.5451 143.01C92.3291 143.358 92.0471 143.61 91.6991 143.766C91.3631 143.922 90.9251 144 90.3851 144H89.9531C89.8331 144 89.7731 143.688 89.7731 143.064C89.7731 142.392 89.8331 142.056 89.9531 142.056H90.3851ZM96.6491 140.4C96.6491 139.776 96.5111 139.314 96.2351 139.014C95.9711 138.702 95.5631 138.546 95.0111 138.546C94.4591 138.546 94.0451 138.702 93.7691 139.014C93.5051 139.314 93.3731 139.782 93.3731 140.418C93.3731 140.946 93.5111 141.354 93.7871 141.642C94.0631 141.918 94.4711 142.056 95.0111 142.056C95.5631 142.056 95.9711 141.924 96.2351 141.66C96.5111 141.384 96.6491 140.964 96.6491 140.4ZM102.221 142.056C102.605 142.056 102.911 141.96 103.139 141.768C103.379 141.564 103.499 141.282 103.499 140.922V138.024H105.371V140.85C105.371 141.654 105.785 142.056 106.613 142.056H107.225C107.345 142.056 107.405 142.386 107.405 143.046C107.405 143.682 107.345 144 107.225 144H106.541C105.473 144 104.765 143.676 104.417 143.028C103.997 143.676 103.265 144 102.221 144H100.061C99.9405 144 99.8805 143.688 99.8805 143.064C99.8805 142.392 99.9405 142.056 100.061 142.056H102.221ZM103.805 146.106V147.834H98.9085V146.106H103.805ZM109.842 142.056C110.214 142.056 110.46 142.044 110.58 142.02C109.896 141.72 109.404 141.378 109.104 140.994C108.816 140.598 108.672 140.094 108.672 139.482C108.672 138.822 108.822 138.222 109.122 137.682C109.434 137.142 109.854 136.722 110.382 136.422C110.922 136.11 111.528 135.954 112.2 135.954C113.328 135.954 114.204 136.302 114.828 136.998C115.464 137.694 115.782 138.654 115.782 139.878V140.49C115.782 142.83 114.216 144 111.084 144H107.232C107.112 144 107.052 143.688 107.052 143.064C107.052 142.392 107.112 142.056 107.232 142.056H109.842ZM113.388 141.786C113.748 141.462 113.928 140.982 113.928 140.346V139.986C113.928 138.546 113.346 137.826 112.182 137.826C111.726 137.826 111.336 137.988 111.012 138.312C110.688 138.624 110.526 139.008 110.526 139.464C110.526 139.812 110.61 140.112 110.778 140.364C110.958 140.604 111.252 140.838 111.66 141.066C112.068 141.294 112.644 141.534 113.388 141.786ZM114.558 132.444V134.172H109.662V132.444H114.558ZM135.334 142.056C135.454 142.056 135.514 142.392 135.514 143.064C135.514 143.688 135.454 144 135.334 144H133.57C133.702 144.156 133.768 144.396 133.768 144.72C133.768 145.428 133.564 146.058 133.156 146.61C132.748 147.162 132.172 147.588 131.428 147.888C130.684 148.2 129.826 148.356 128.854 148.356H127.486C125.95 148.356 124.768 147.912 123.94 147.024C123.112 146.148 122.698 144.912 122.698 143.316V139.824H124.552V143.28C124.552 145.368 125.536 146.412 127.504 146.412H128.854C129.874 146.412 130.636 146.268 131.14 145.98C131.644 145.692 131.896 145.278 131.896 144.738C131.896 144.45 131.818 144.24 131.662 144.108C131.518 143.988 131.284 143.928 130.96 143.928H127.72L127.9 142.056H135.334ZM135.772 142.056C136.168 142.056 136.45 141.978 136.618 141.822C136.798 141.654 136.888 141.396 136.888 141.048V140.418C136.888 139.266 137.206 138.354 137.842 137.682C138.49 137.01 139.366 136.674 140.47 136.674C141.574 136.674 142.42 136.998 143.008 137.646C143.596 138.282 143.89 139.2 143.89 140.4C143.89 141.54 143.578 142.428 142.954 143.064C142.342 143.688 141.49 144 140.398 144C139.786 144 139.27 143.916 138.85 143.748C138.43 143.568 138.124 143.322 137.932 143.01C137.716 143.358 137.434 143.61 137.086 143.766C136.75 143.922 136.312 144 135.772 144H135.34C135.22 144 135.16 143.688 135.16 143.064C135.16 142.392 135.22 142.056 135.34 142.056H135.772ZM142.036 140.4C142.036 139.776 141.898 139.314 141.622 139.014C141.358 138.702 140.95 138.546 140.398 138.546C139.846 138.546 139.432 138.702 139.156 139.014C138.892 139.314 138.76 139.782 138.76 140.418C138.76 140.946 138.898 141.354 139.174 141.642C139.45 141.918 139.858 142.056 140.398 142.056C140.95 142.056 141.358 141.924 141.622 141.66C141.898 141.384 142.036 140.964 142.036 140.4ZM150.222 142.056C150.282 142.056 150.324 142.122 150.348 142.254C150.384 142.386 150.402 142.656 150.402 143.064C150.402 143.448 150.384 143.7 150.348 143.82C150.324 143.94 150.282 144 150.222 144H149.682C148.722 144 147.996 143.718 147.504 143.154C147.012 142.59 146.766 141.792 146.766 140.76V132.372H148.62V140.634C148.62 141.126 148.71 141.486 148.89 141.714C149.082 141.942 149.382 142.056 149.79 142.056H150.222ZM150.661 142.056C151.057 142.056 151.339 141.978 151.507 141.822C151.687 141.654 151.777 141.396 151.777 141.048V140.418C151.777 139.266 152.095 138.354 152.731 137.682C153.379 137.01 154.255 136.674 155.359 136.674C156.463 136.674 157.309 136.998 157.897 137.646C158.485 138.282 158.779 139.2 158.779 140.4V140.814C158.779 141.258 158.869 141.576 159.049 141.768C159.241 141.96 159.523 142.056 159.895 142.056H160.345C160.465 142.056 160.525 142.392 160.525 143.064C160.525 143.688 160.465 144 160.345 144H159.895C158.851 144 158.167 143.664 157.843 142.992C157.591 143.328 157.237 143.58 156.781 143.748C156.325 143.916 155.827 144 155.287 144C154.675 144 154.159 143.916 153.739 143.748C153.319 143.568 153.013 143.322 152.821 143.01C152.605 143.358 152.323 143.61 151.975 143.766C151.639 143.922 151.201 144 150.661 144H150.229C150.109 144 150.049 143.688 150.049 143.064C150.049 142.392 150.109 142.056 150.229 142.056H150.661ZM156.925 140.4C156.925 139.776 156.787 139.314 156.511 139.014C156.247 138.702 155.839 138.546 155.287 138.546C154.735 138.546 154.321 138.702 154.045 139.014C153.781 139.314 153.649 139.782 153.649 140.418C153.649 140.946 153.787 141.354 154.063 141.642C154.339 141.918 154.747 142.056 155.287 142.056C155.839 142.056 156.247 141.924 156.511 141.66C156.787 141.384 156.925 140.964 156.925 140.4ZM165.286 140.976C165.286 141.924 165.004 142.668 164.44 143.208C163.876 143.736 163.12 144 162.172 144H160.336C160.216 144 160.156 143.688 160.156 143.064C160.156 142.392 160.216 142.056 160.336 142.056H162.172C162.544 142.056 162.844 141.96 163.072 141.768C163.3 141.564 163.414 141.282 163.414 140.922V138.024H165.286V140.976ZM165.772 134.244V135.972H160.876V134.244H165.772Z" fill="#2150F5"/>
</svg>
