<svg width="346" height="446" viewBox="0 0 346 446" fill="none" xmlns="http://www.w3.org/2000/svg">
<rect x="345.037" y="380.451" width="251.151" height="393.891" rx="10.841" transform="rotate(164.91 345.037 380.451)" fill="url(#paint0_linear_254_7866)"/>
<mask id="mask0_254_7866" style="mask-type:alpha" maskUnits="userSpaceOnUse" x="2" y="2" width="341" height="442">
<rect x="345.037" y="380.451" width="251.151" height="393.891" rx="10.841" transform="rotate(164.91 345.037 380.451)" fill="url(#paint1_linear_254_7866)"/>
</mask>
<g mask="url(#mask0_254_7866)">
<g opacity="0.6">
<rect x="143.824" y="116.573" width="46.0744" height="60.5291" rx="4.5171" transform="rotate(164.91 143.824 116.573)" fill="url(#paint2_linear_254_7866)" stroke="#2F333C" stroke-width="0.903419"/>
<rect x="130.496" y="94.9038" width="31.6197" height="12.6479" rx="4.5171" transform="rotate(164.91 130.496 94.9038)" stroke="#2F333C" stroke-width="0.903419"/>
<path d="M119.069 60.4304L125.648 84.8305" stroke="#2F333C" stroke-width="0.903419"/>
<path d="M128.254 94.4956L134.833 118.896" stroke="#2F333C" stroke-width="0.903419"/>
<path d="M105.967 63.9634L112.183 87.0175" stroke="#2F333C" stroke-width="0.903419"/>
<path d="M115.505 99.3386L121.722 122.393" stroke="#2F333C" stroke-width="0.903419"/>
<path d="M92.8649 67.4961L99.4442 91.8962" stroke="#2F333C" stroke-width="0.903419"/>
<path d="M102.05 101.561L108.63 125.961" stroke="#2F333C" stroke-width="0.903419"/>
</g>
<g filter="url(#filter0_i_254_7866)">
<path d="M147.537 54.3364L153.735 52.6652L153.295 51.0361L154.316 50.7608L155.683 53.8718L147.972 55.951L147.537 54.3364Z" fill="white"/>
<path d="M155.928 60.9745C156.503 60.8196 156.928 60.8318 157.204 61.0111C157.48 61.1903 157.712 61.6251 157.898 62.3153L158.958 66.2469C159.144 66.9372 159.163 67.4292 159.014 67.723C158.867 68.0216 158.506 68.2484 157.932 68.4033L157.439 68.536C157.068 68.6362 156.767 68.6551 156.538 68.5926C156.31 68.535 156.002 68.3254 155.615 67.9638L151.673 64.2035L152.872 68.6492L154.001 68.3446L153.984 69.8639L153.376 70.0279C152.801 70.1828 152.375 70.1682 152.098 69.9841C151.822 69.8048 151.59 69.3701 151.404 68.6798L149.669 62.243L150.364 62.0556C150.702 61.9645 150.981 61.9642 151.202 62.0547C151.425 62.1501 151.698 62.3482 152.023 62.649L156.708 67.0633L157.707 66.7938L156.532 62.4351L154.954 62.8607L154.937 61.242L155.928 60.9745Z" fill="white"/>
<path d="M153.218 75.4062C153.032 74.716 153.012 74.2215 153.16 73.9229C153.308 73.6291 153.67 73.4048 154.244 73.2499L154.867 73.082L155.616 74.5653L154.545 74.8543L155.658 78.9813C155.737 79.2758 155.836 79.4589 155.953 79.5307C156.072 79.6074 156.27 79.6086 156.545 79.5344L157.102 79.3841C157.382 79.3086 157.554 79.2078 157.619 79.0817C157.688 78.9543 157.683 78.7458 157.605 78.4562L156.908 75.8713L158.154 75.5355L158.775 77.838C158.853 78.1276 158.951 78.3083 159.068 78.3801C159.186 78.4519 159.385 78.4501 159.665 78.3746L160.049 78.2711C160.333 78.1943 160.509 78.0953 160.574 77.974C160.64 77.8528 160.634 77.6473 160.556 77.3577L159.537 73.5782L158.581 73.8359L158.455 72.2465L158.933 72.1176C159.508 71.9627 159.933 71.9749 160.209 72.1542C160.485 72.3334 160.716 72.7682 160.902 73.4585L162.019 77.6C162.205 78.2903 162.224 78.7823 162.075 79.0761C161.927 79.3699 161.565 79.5942 160.991 79.7491L160.296 79.9365C159.847 80.0576 159.485 80.0388 159.209 79.8801C158.933 79.7215 158.677 79.3787 158.442 78.8519C158.55 79.4805 158.516 79.9711 158.342 80.3236C158.168 80.676 157.842 80.9167 157.364 81.0456L156.56 81.2623C155.933 81.4315 155.464 81.4128 155.155 81.2063C154.85 80.9984 154.604 80.547 154.417 79.8519L153.218 75.4062Z" fill="white"/>
<path d="M157.2 90.5188L158.974 90.0405L157.41 84.2409L158.691 83.8953L165.009 88.3432L165.462 90.023L160.691 91.3096L161.19 93.1631L159.909 93.5087L159.409 91.6551L157.635 92.1335L157.2 90.5188ZM160.255 89.6949L163.68 88.7715L159.127 85.5099L160.255 89.6949Z" fill="white"/>
<path d="M163.971 101.718L168.331 101.009L170.114 107.619L168.775 107.84L167.334 102.497L165.803 102.723C166.048 103.361 166.252 103.925 166.415 104.415C166.579 104.909 166.716 105.361 166.827 105.771C167.168 107.036 167.207 108.043 166.943 108.793C166.684 109.541 166.122 110.031 165.258 110.264C164.36 110.506 163.619 110.349 163.034 109.792C162.45 109.24 161.958 108.223 161.559 106.741C161.349 105.964 161.186 105.255 161.07 104.613C160.955 103.976 160.89 103.427 160.874 102.965L162.248 102.183C162.314 102.967 162.403 103.7 162.514 104.379C162.631 105.062 162.772 105.71 162.937 106.323C163.196 107.284 163.472 107.934 163.766 108.274C164.065 108.613 164.438 108.722 164.887 108.601C165.312 108.487 165.565 108.214 165.645 107.783C165.726 107.352 165.644 106.683 165.399 105.776C165.243 105.197 165.045 104.567 164.804 103.886C164.563 103.205 164.286 102.482 163.971 101.718Z" fill="white"/>
<path d="M167.48 114.558C167.414 114.566 167.35 114.575 167.286 114.587C167.222 114.599 167.137 114.62 167.03 114.648C166.292 114.848 165.859 115.068 165.733 115.309C165.612 115.554 165.642 116.009 165.822 116.675L166.398 118.811C166.539 119.337 166.702 119.682 166.886 119.845C167.071 120.012 167.34 120.049 167.692 119.954L168.112 119.84C168.469 119.744 168.68 119.565 168.744 119.305C168.815 119.048 168.759 118.581 168.576 117.905C168.429 117.36 168.262 116.807 168.075 116.246C167.894 115.689 167.695 115.127 167.48 114.558ZM168.666 114.347C168.91 114.908 169.129 115.462 169.324 116.011C169.524 116.562 169.698 117.111 169.845 117.656C170.178 118.892 170.262 119.778 170.096 120.315C169.935 120.85 169.483 121.218 168.739 121.419L167.704 121.698C167.067 121.87 166.539 121.784 166.12 121.441C165.702 121.099 165.371 120.478 165.129 119.58L164.257 116.344C163.996 115.379 163.987 114.672 164.228 114.223C164.47 113.775 165.04 113.43 165.937 113.188L166.944 112.916C168.368 112.532 169.601 112.728 170.644 113.503C171.693 114.282 172.459 115.569 172.943 117.365C172.962 117.432 172.979 117.505 172.995 117.584C173.017 117.666 173.039 117.776 173.061 117.916L172.115 119.305L171.982 118.812C171.544 117.185 171.077 116.05 170.582 115.407C170.093 114.762 169.454 114.409 168.666 114.347Z" fill="white"/>
<path d="M167.207 127.805L174.8 130.184L173.435 125.123L171.785 125.568L171.632 123.878L174.303 123.157L176.595 131.657L175.364 131.989L167.732 129.752L167.207 127.805Z" fill="white"/>
<path d="M179.159 141.164C179.345 141.855 179.364 142.347 179.215 142.64C179.068 142.939 178.707 143.166 178.132 143.321L177.437 143.508C176.993 143.628 176.631 143.609 176.35 143.452C176.07 143.294 175.805 142.957 175.557 142.438C175.646 143.02 175.604 143.477 175.429 143.809C175.255 144.141 174.936 144.369 174.472 144.494L173.668 144.711C173.046 144.879 172.579 144.857 172.268 144.645C171.959 144.439 171.71 143.986 171.521 143.286L170.203 138.398C170.016 137.703 170.002 137.189 170.16 136.857C170.324 136.523 170.72 136.271 171.347 136.102L172.151 135.885C172.609 135.761 172.998 135.799 173.315 135.998C173.638 136.196 173.905 136.564 174.118 137.102C174.078 136.533 174.14 136.107 174.302 135.825C174.465 135.548 174.767 135.351 175.206 135.232L175.901 135.045C176.475 134.89 176.901 134.902 177.177 135.081C177.454 135.265 177.686 135.703 177.872 136.393L179.159 141.164ZM177.695 140.922L176.733 137.352C176.653 137.058 176.552 136.873 176.428 136.798C176.309 136.721 176.109 136.721 175.829 136.796L175.446 136.899C175.171 136.974 174.998 137.074 174.929 137.202C174.865 137.328 174.872 137.538 174.952 137.833L175.914 141.402C175.992 141.692 176.09 141.873 176.208 141.944C176.327 142.021 176.527 142.022 176.806 141.946L177.19 141.843C177.475 141.766 177.65 141.664 177.714 141.538C177.78 141.417 177.773 141.212 177.695 140.922ZM174.714 141.905L173.658 137.987C173.579 137.698 173.482 137.517 173.364 137.445C173.246 137.374 173.045 137.376 172.76 137.453L172.202 137.603C171.922 137.679 171.749 137.775 171.682 137.891C171.62 138.006 171.629 138.213 171.71 138.513L172.766 142.43C172.845 142.724 172.941 142.906 173.053 142.974C173.17 143.046 173.369 143.044 173.649 142.968L174.207 142.818C174.491 142.741 174.667 142.642 174.732 142.521C174.798 142.4 174.792 142.194 174.714 141.905Z" fill="white"/>
<path d="M179.215 159.72C178.979 159.193 178.764 158.653 178.568 158.1C178.377 157.546 178.204 156.981 178.049 156.407C177.716 155.171 177.63 154.283 177.789 153.743C177.955 153.206 178.408 152.839 179.146 152.639L180.174 152.362C180.811 152.19 181.339 152.273 181.756 152.611C182.175 152.954 182.505 153.574 182.747 154.472L183.618 157.702C183.878 158.667 183.888 159.374 183.646 159.822C183.404 160.27 182.835 160.616 181.937 160.858L180.93 161.129C179.507 161.513 178.273 161.317 177.231 160.542C176.188 159.767 175.424 158.482 174.94 156.686C174.9 156.536 174.872 156.422 174.856 156.344C174.836 156.271 174.822 156.2 174.814 156.13L175.754 154.75L175.885 155.235C176.325 156.867 176.792 158.004 177.287 158.648C177.782 159.296 178.425 159.653 179.215 159.72ZM180.411 159.491C180.502 159.482 180.586 159.469 180.665 159.453C180.75 159.441 180.821 159.427 180.879 159.411C181.632 159.208 182.073 158.983 182.203 158.735C182.334 158.488 182.308 158.029 182.127 157.358L181.555 155.236C181.411 154.701 181.244 154.35 181.054 154.183C180.864 154.017 180.586 153.983 180.219 154.082L179.791 154.197C179.42 154.298 179.199 154.479 179.13 154.741C179.061 155.003 179.119 155.476 179.304 156.162C179.434 156.645 179.59 157.167 179.773 157.729C179.961 158.294 180.174 158.881 180.411 159.491Z" fill="white"/>
<path d="M179.238 166.432L180.712 171.899L185.686 170.557L184.212 165.091L179.238 166.432ZM183.274 163.627C183.974 163.438 184.482 163.431 184.798 163.605C185.12 163.782 185.372 164.208 185.555 164.884L186.951 170.061C187.134 170.742 187.13 171.237 186.94 171.547C186.755 171.861 186.313 172.113 185.613 172.301L181.58 173.389C180.88 173.578 180.369 173.583 180.047 173.406C179.731 173.232 179.481 172.805 179.297 172.125L177.901 166.948C177.719 166.272 177.72 165.777 177.905 165.463C178.096 165.153 178.541 164.903 179.241 164.715L183.274 163.627Z" fill="white"/>
<path d="M181.562 180.524L187.76 178.852L187.321 177.223L188.342 176.948L189.709 180.059L181.997 182.138L181.562 180.524Z" fill="white"/>
<path d="M189.954 187.162C190.528 187.007 190.954 187.019 191.23 187.198C191.506 187.378 191.737 187.812 191.923 188.503L192.983 192.434C193.169 193.124 193.188 193.616 193.04 193.91C192.892 194.209 192.531 194.436 191.957 194.59L191.465 194.723C191.093 194.823 190.792 194.842 190.563 194.78C190.336 194.722 190.028 194.513 189.64 194.151L185.698 190.391L186.897 194.836L188.027 194.532L188.009 196.051L187.401 196.215C186.826 196.37 186.401 196.355 186.123 196.171C185.847 195.992 185.616 195.557 185.43 194.867L183.694 188.43L184.389 188.243C184.727 188.152 185.006 188.151 185.228 188.242C185.45 188.337 185.724 188.535 186.048 188.836L190.733 193.25L191.733 192.981L190.557 188.622L188.979 189.048L188.962 187.429L189.954 187.162Z" fill="white"/>
<path d="M188.793 207.342C188.607 206.652 188.588 206.158 188.735 205.859C188.884 205.565 189.245 205.341 189.82 205.186L190.442 205.018L191.192 206.502L190.12 206.79L191.233 210.918C191.313 211.212 191.411 211.395 191.529 211.467C191.648 211.544 191.845 211.545 192.12 211.471L192.678 211.32C192.958 211.245 193.13 211.144 193.194 211.018C193.263 210.89 193.259 210.682 193.181 210.392L192.484 207.807L193.729 207.472L194.35 209.774C194.428 210.064 194.526 210.244 194.644 210.316C194.762 210.388 194.96 210.386 195.24 210.311L195.624 210.207C195.909 210.131 196.084 210.031 196.15 209.91C196.216 209.789 196.209 209.584 196.131 209.294L195.112 205.514L194.156 205.772L194.031 204.183L194.509 204.054C195.083 203.899 195.508 203.911 195.784 204.09C196.061 204.27 196.292 204.704 196.478 205.395L197.595 209.536C197.781 210.226 197.8 210.718 197.651 211.012C197.502 211.306 197.141 211.53 196.566 211.685L195.871 211.873C195.422 211.994 195.06 211.975 194.784 211.816C194.508 211.658 194.253 211.315 194.018 210.788C194.125 211.417 194.092 211.907 193.917 212.26C193.743 212.612 193.417 212.853 192.939 212.982L192.136 213.198C191.508 213.368 191.04 213.349 190.73 213.142C190.426 212.935 190.18 212.483 189.992 211.788L188.793 207.342Z" fill="white"/>
<path d="M192.775 222.455L194.549 221.977L192.985 216.177L194.267 215.831L200.585 220.279L201.038 221.959L196.266 223.246L196.766 225.099L195.484 225.445L194.985 223.591L193.211 224.07L192.775 222.455ZM195.831 221.631L199.256 220.708L194.702 217.446L195.831 221.631Z" fill="white"/>
<path d="M197.996 227.905L202.356 227.196L204.139 233.806L202.8 234.027L201.36 228.684L199.828 228.91C200.073 229.549 200.277 230.112 200.44 230.602C200.604 231.096 200.742 231.548 200.852 231.959C201.193 233.223 201.232 234.23 200.968 234.98C200.709 235.728 200.147 236.219 199.283 236.451C198.385 236.694 197.644 236.536 197.059 235.979C196.475 235.427 195.983 234.411 195.584 232.929C195.374 232.152 195.212 231.442 195.095 230.8C194.981 230.163 194.915 229.614 194.9 229.152L196.273 228.37C196.34 229.155 196.428 229.887 196.539 230.566C196.656 231.249 196.797 231.897 196.962 232.51C197.221 233.471 197.498 234.121 197.791 234.462C198.09 234.8 198.464 234.909 198.913 234.788C199.337 234.674 199.59 234.401 199.671 233.97C199.751 233.54 199.669 232.87 199.424 231.963C199.268 231.384 199.07 230.754 198.829 230.073C198.589 229.392 198.311 228.67 197.996 227.905Z" fill="white"/>
<path d="M201.505 240.746C201.44 240.753 201.375 240.762 201.311 240.775C201.247 240.787 201.162 240.807 201.056 240.836C200.317 241.035 199.885 241.255 199.758 241.496C199.638 241.741 199.667 242.196 199.847 242.863L200.423 244.999C200.565 245.525 200.728 245.869 200.911 246.032C201.096 246.199 201.365 246.236 201.717 246.141L202.137 246.027C202.494 245.931 202.705 245.753 202.77 245.492C202.84 245.235 202.784 244.768 202.602 244.093C202.455 243.547 202.288 242.994 202.1 242.434C201.919 241.877 201.721 241.314 201.505 240.746ZM202.691 240.535C202.935 241.095 203.155 241.65 203.349 242.198C203.55 242.75 203.724 243.298 203.871 243.844C204.204 245.079 204.287 245.965 204.121 246.502C203.96 247.038 203.508 247.405 202.765 247.606L201.729 247.885C201.092 248.057 200.564 247.971 200.146 247.629C199.727 247.286 199.397 246.665 199.155 245.768L198.282 242.531C198.022 241.566 198.012 240.859 198.254 240.411C198.495 239.962 199.065 239.617 199.963 239.375L200.969 239.104C202.393 238.72 203.627 238.915 204.669 239.69C205.718 240.469 206.484 241.756 206.969 243.552C206.987 243.62 207.004 243.693 207.02 243.771C207.042 243.853 207.064 243.964 207.086 244.103L206.14 245.492L206.008 244.999C205.569 243.373 205.102 242.238 204.608 241.594C204.118 240.95 203.479 240.596 202.691 240.535Z" fill="white"/>
</g>
</g>
<defs>
<filter id="filter0_i_254_7866" x="147.537" y="50.7607" width="61.3563" height="198.114" filterUnits="userSpaceOnUse" color-interpolation-filters="sRGB">
<feFlood flood-opacity="0" result="BackgroundImageFix"/>
<feBlend mode="normal" in="SourceGraphic" in2="BackgroundImageFix" result="shape"/>
<feColorMatrix in="SourceAlpha" type="matrix" values="0 0 0 0 0 0 0 0 0 0 0 0 0 0 0 0 0 0 127 0" result="hardAlpha"/>
<feOffset dx="1.80684" dy="0.903419"/>
<feGaussianBlur stdDeviation="0.903419"/>
<feComposite in2="hardAlpha" operator="arithmetic" k2="-1" k3="1"/>
<feColorMatrix type="matrix" values="0 0 0 0 0 0 0 0 0 0 0 0 0 0 0 0 0 0 0.15 0"/>
<feBlend mode="normal" in2="shape" result="effect1_innerShadow_254_7866"/>
</filter>
<linearGradient id="paint0_linear_254_7866" x1="470.612" y1="380.451" x2="470.612" y2="774.342" gradientUnits="userSpaceOnUse">
<stop stop-color="#0B3FF5"/>
<stop offset="1" stop-color="#B1C3FF"/>
</linearGradient>
<linearGradient id="paint1_linear_254_7866" x1="470.612" y1="380.451" x2="470.612" y2="774.342" gradientUnits="userSpaceOnUse">
<stop stop-color="#E42C64"/>
<stop offset="1" stop-color="#614AD3"/>
</linearGradient>
<linearGradient id="paint2_linear_254_7866" x1="166.861" y1="116.573" x2="166.861" y2="177.103" gradientUnits="userSpaceOnUse">
<stop stop-color="#F78E0F"/>
<stop offset="1" stop-color="#FAB869"/>
</linearGradient>
</defs>
</svg>
