<svg width="104" height="41" viewBox="0 0 104 41" fill="none" xmlns="http://www.w3.org/2000/svg">
<path d="M1.1157 37.4345C2.44375 39.142 4.88863 39.4843 6.63458 38.2072L11.5463 34.6146C12.2463 34.1026 12.66 33.2874 12.66 32.4202V30.0015C12.66 28.7176 14.2561 28 15.54 28L16.1455 26.2734C16.4523 25.3984 16.4456 24.444 16.1265 23.5734L15.4913 21.84C13.9313 21.84 12.66 20.56 12.66 18.92V14.0966C12.66 12.0779 10.7613 10.5977 8.80361 11.0903C7.42582 11.437 6.46003 12.6759 6.46003 14.0966V28.6678C6.46003 29.8427 5.94353 30.9582 5.0476 31.7182L0 36L1.1157 37.4345Z" fill="#F53A21"/>
<path d="M15.5313 28C16.5278 28 17.4745 27.8288 18.3531 27.5226C20.341 26.8298 22.7156 26.8383 24.7054 27.5255C24.923 27.6006 25.1448 27.6676 25.3705 27.7258C26.6371 28.0527 27.821 27.1736 28.2539 25.9392C28.4853 25.2794 28.4853 24.5606 28.2539 23.9008C27.821 22.6664 26.5014 21.9618 25.5396 21.075C24.9653 20.5455 24.6113 19.7825 24.6113 18.92V14.0524C24.6113 12.0525 22.7351 10.583 20.7934 11.0621C19.4179 11.4015 18.4513 12.6356 18.4513 14.0524V18.92C18.4513 20.56 17.1313 21.84 15.5313 21.84H15.4913L16.1265 23.5734C16.4456 24.444 16.4523 25.3984 16.1455 26.2734L15.54 28H15.5313ZM10.5 3.7C10.5 5.01444 11.5656 6.08 12.88 6.08H22.5113C23.8257 6.08 24.8913 5.01444 24.8913 3.7C24.8913 2.38557 23.8257 1.32 22.5113 1.32H12.88C11.5656 1.32 10.5 2.38557 10.5 3.7Z" fill="#F53A21"/>
<path d="M26.8274 25.6197C27.24 27.0305 28.5336 28 30.0035 28C30.9969 28 31.9478 27.8299 32.8293 27.5255C34.8192 26.8383 37.1937 26.8298 39.1816 27.5226C40.0603 27.8288 41.0069 28 42.0035 28L43 25L43.4157 21.84C41.8157 21.84 39.0835 20.56 39.0835 18.92V14.0524C39.0835 12.0525 37.2072 10.583 35.2656 11.0621C33.89 11.4015 32.9235 12.6356 32.9235 14.0524V18.92C32.9235 20.56 31.6035 21.84 30.0035 21.84H29.4336C28.2828 21.84 27.2508 22.5487 26.8376 23.6227C26.6186 24.1918 26.5927 24.817 26.7638 25.4022L26.8274 25.6197ZM27.7235 34.38C27.7235 35.6944 28.789 36.76 30.1035 36.76H31.7284C32.6314 36.76 33.3635 37.4921 33.3635 38.3951C33.3635 39.5043 34.4444 40.2916 35.5001 39.9513L36.5259 39.6207C37.5257 39.2985 38.2035 38.3679 38.2035 37.3174V36C38.2035 33.7909 36.4126 32 34.2035 32H30.1035C28.789 32 27.7235 33.0656 27.7235 34.38Z" fill="#2150F5"/>
<path d="M42.0035 28H43.4157H44.8157C49.8157 28 53.8957 23.92 53.8957 18.92V14.0524C53.8957 12.0525 52.0194 10.583 50.0778 11.0621C48.7022 11.4015 47.7357 12.6356 47.7357 14.0524V18.92C47.7357 20.56 46.4157 21.84 44.8157 21.84H43.4157L43 25L42.0035 28ZM41.6957 34.36C41.6957 35.6855 42.7702 36.76 44.0957 36.76H49.8557C51.1811 36.76 52.2557 35.6855 52.2557 34.36C52.2557 33.0345 51.1811 31.96 49.8557 31.96H44.0957C42.7702 31.96 41.6957 33.0345 41.6957 34.36Z" fill="#2150F5"/>
<path d="M55.3667 34.8618C56.5903 36.7045 59.0772 37.2042 60.9177 35.9772L62.9857 34.5985C63.734 34.0996 64.1835 33.2598 64.1835 32.3605V29.1621C64.1835 28.2191 65.8115 27.6734 66.7229 27.9157C67.1873 28.0392 67.1699 27.6965 67.3289 27.243L68.1435 24.92L67 21.5C66.5 21 64.1835 20.56 64.1835 18.92V14.0966C64.1835 12.0779 62.2847 10.5977 60.327 11.0903C58.9493 11.437 57.9835 12.6759 57.9835 14.0966V28.3917C57.9835 29.7223 57.3219 30.9657 56.2184 31.7091L54.1835 33.08L55.3667 34.8618Z" fill="#2150F5"/>
<path d="M67.0547 28H94.4547C99.4547 28 103.575 23.92 103.575 18.92C103.575 13.92 99.4547 9.88 94.4547 9.88H80.3347L85.5025 6.25294C86.8615 5.29905 87.1461 3.4021 86.1267 2.09144C85.2051 0.906541 83.5325 0.618862 82.268 1.42775L70.8904 8.70574C69.7467 9.43736 69.0547 10.7015 69.0547 12.0592C69.0547 14.2577 70.837 16.04 73.0356 16.04H94.4547C96.0547 16.04 97.3747 17.32 97.3747 18.92C97.3747 20.56 96.0547 21.84 94.4547 21.84L67 21.5L67.5 23L68.1435 24.92L67.0547 28Z" fill="#2150F5"/>
</svg>
