<svg width="416" height="455" viewBox="0 0 416 455" fill="none" xmlns="http://www.w3.org/2000/svg">
<path d="M360.16 16.6124C361.001 21.9368 361.421 26.1636 361.421 29.2928L361.351 30.2036C362.005 30.9976 362.962 31.3946 364.223 31.3946C365.017 31.3946 365.671 31.161 366.185 30.694C366.745 30.2269 367.026 29.5964 367.026 28.8024C367.026 27.3546 366.605 23.9684 365.765 18.6441L376.063 16.6124C376.904 22.1703 377.324 26.5139 377.324 29.6431C377.324 32.0718 376.81 34.2436 375.783 36.1585C374.755 38.0734 373.331 39.5679 371.509 40.6422C369.688 41.7164 367.633 42.2535 365.344 42.2535C363.663 42.2535 362.098 41.9499 360.65 41.3427C359.249 40.7356 358.198 39.9883 357.498 39.1009C356.704 40.1284 355.583 40.9224 354.135 41.4829C352.734 41.9966 351.216 42.2535 349.581 42.2535C348.18 42.2535 347.106 42.02 346.359 41.5529V43.3044V61.099H335.99V43.4445C335.99 38.9141 335.757 35.0376 335.29 31.8149C334.823 28.5922 333.888 24.6924 332.487 20.1153L342.506 16.6124L345.518 28.7324C345.752 29.6665 346.125 30.3437 346.639 30.764C347.153 31.1844 347.807 31.3946 348.601 31.3946C349.395 31.3946 350.048 31.161 350.562 30.694C351.123 30.2269 351.403 29.5964 351.403 28.8024C351.403 27.7749 350.936 24.3888 350.002 18.6441L360.16 16.6124Z" fill="#DAE9F0"/>
<path d="M24.3435 220.939C22.6368 220.939 21.3235 220.446 20.4035 219.459C19.4835 218.486 19.0235 217.112 19.0235 215.339V211.459H21.0835V215.299C21.0835 217.619 22.1768 218.779 24.3635 218.779H25.1835C26.2502 218.779 27.0902 218.486 27.7035 217.899C28.3168 217.312 28.6235 216.506 28.6235 215.479V209.459H30.7035V215.299C30.7035 216.472 30.4702 217.479 30.0035 218.319C29.5368 219.172 28.8835 219.819 28.0435 220.259C27.2168 220.712 26.2635 220.939 25.1835 220.939H24.3435ZM23.2635 208.979V207.019H25.6635V208.979H23.2635ZM33.911 203.179H35.971V216.099H33.911V203.179ZM42.3493 212.539C42.3493 213.472 42.8559 213.939 43.8693 213.939H44.1493C44.2826 213.939 44.3493 214.312 44.3493 215.059C44.3493 215.752 44.2826 216.099 44.1493 216.099H43.8693C43.5359 216.099 43.2293 216.052 42.9493 215.959C42.6826 215.852 42.4826 215.712 42.3493 215.539V215.659C42.3226 216.699 42.0826 217.619 41.6293 218.419C41.1893 219.219 40.5693 219.839 39.7693 220.279C38.9826 220.719 38.0626 220.939 37.0093 220.939H35.5093L35.3293 218.779H36.9893C38.0159 218.779 38.8159 218.486 39.3893 217.899C39.9759 217.326 40.2693 216.512 40.2693 215.459V209.459H42.3493V212.539ZM49.0046 213.939C49.4179 213.939 49.7513 213.832 50.0046 213.619C50.2579 213.392 50.3846 213.079 50.3846 212.679V209.459H52.4646V212.739C52.4646 213.792 52.1513 214.619 51.5246 215.219C50.9113 215.806 50.0713 216.099 49.0046 216.099H44.1446C44.0113 216.099 43.9446 215.752 43.9446 215.059C43.9446 214.312 44.0113 213.939 44.1446 213.939H49.0046ZM49.7846 218.439V220.359H44.3446V218.439H49.7846ZM55.6493 203.179H57.7093V216.099H55.6493V203.179ZM70.0055 215.459C70.0055 216.566 69.7855 217.532 69.3455 218.359C68.9055 219.186 68.2789 219.819 67.4655 220.259C66.6655 220.712 65.7322 220.939 64.6655 220.939H64.0855L63.9055 218.779H64.6455C65.6722 218.779 66.4722 218.486 67.0455 217.899C67.6322 217.326 67.9255 216.512 67.9255 215.459V209.459H70.0055V215.459ZM80.5283 210.139C80.9817 210.672 81.3017 211.166 81.4883 211.619C81.6883 212.059 81.7883 212.519 81.7883 212.999C81.7883 213.919 81.4617 214.666 80.8083 215.239C80.1683 215.812 79.2683 216.099 78.1083 216.099H72.5883L72.3883 213.939H78.1083C78.615 213.939 79.0083 213.852 79.2883 213.679C79.5683 213.492 79.7083 213.246 79.7083 212.939C79.7083 212.726 79.6483 212.519 79.5283 212.319C79.4217 212.106 79.2283 211.832 78.9483 211.499L75.3483 207.319L76.8083 205.839L80.5283 210.139ZM96.9932 210.139C97.4465 210.672 97.7665 211.166 97.9532 211.619C98.1532 212.059 98.2532 212.519 98.2532 212.999C98.2532 213.919 97.9265 214.666 97.2732 215.239C96.6332 215.812 95.7332 216.099 94.5732 216.099H89.0532L88.8532 213.939H94.5732C95.0799 213.939 95.4732 213.852 95.7532 213.679C96.0332 213.492 96.1732 213.246 96.1732 212.939C96.1732 212.726 96.1132 212.519 95.9932 212.319C95.8865 212.106 95.6932 211.832 95.4132 211.499L91.8132 207.319L93.2732 205.839L96.9932 210.139ZM104.4 212.539C104.4 213.472 104.907 213.939 105.92 213.939H106.2C106.333 213.939 106.4 214.312 106.4 215.059C106.4 215.752 106.333 216.099 106.2 216.099H105.92C105.587 216.099 105.28 216.052 105 215.959C104.733 215.852 104.533 215.712 104.4 215.539V215.659C104.373 216.699 104.133 217.619 103.68 218.419C103.24 219.219 102.62 219.839 101.82 220.279C101.033 220.719 100.113 220.939 99.0601 220.939H97.5601L97.3801 218.779H99.0401C100.067 218.779 100.867 218.486 101.44 217.899C102.027 217.326 102.32 216.512 102.32 215.459V209.459H104.4V212.539ZM102.04 207.179V205.219H104.44V207.179H102.04ZM106.675 213.939C107.115 213.939 107.429 213.852 107.615 213.679C107.815 213.492 107.915 213.206 107.915 212.819V212.119C107.915 210.839 108.269 209.826 108.975 209.079C109.695 208.332 110.669 207.959 111.895 207.959C113.122 207.959 114.062 208.319 114.715 209.039C115.369 209.746 115.695 210.766 115.695 212.099C115.695 213.366 115.349 214.352 114.655 215.059C113.975 215.752 113.029 216.099 111.815 216.099C111.135 216.099 110.562 216.006 110.095 215.819C109.629 215.619 109.289 215.346 109.075 214.999C108.835 215.386 108.522 215.666 108.135 215.839C107.762 216.012 107.275 216.099 106.675 216.099H106.195C106.062 216.099 105.995 215.752 105.995 215.059C105.995 214.312 106.062 213.939 106.195 213.939H106.675ZM113.635 212.099C113.635 211.406 113.482 210.892 113.175 210.559C112.882 210.212 112.429 210.039 111.815 210.039C111.202 210.039 110.742 210.212 110.435 210.559C110.142 210.892 109.995 211.412 109.995 212.119C109.995 212.706 110.149 213.159 110.455 213.479C110.762 213.786 111.215 213.939 111.815 213.939C112.429 213.939 112.882 213.792 113.175 213.499C113.482 213.192 113.635 212.726 113.635 212.099ZM121.861 215.459C121.861 216.566 121.641 217.532 121.201 218.359C120.761 219.186 120.134 219.819 119.321 220.259C118.521 220.712 117.588 220.939 116.521 220.939H115.021L114.841 218.779H116.501C117.528 218.779 118.328 218.486 118.901 217.899C119.488 217.326 119.781 216.512 119.781 215.459V209.459H121.861V215.459ZM128.884 213.939C128.95 213.939 128.997 214.012 129.024 214.159C129.064 214.306 129.084 214.606 129.084 215.059C129.084 215.486 129.064 215.766 129.024 215.899C128.997 216.032 128.95 216.099 128.884 216.099H128.284C127.217 216.099 126.41 215.786 125.864 215.159C125.317 214.532 125.044 213.646 125.044 212.499V203.179H127.104V212.359C127.104 212.906 127.204 213.306 127.404 213.559C127.617 213.812 127.95 213.939 128.404 213.939H128.884ZM134.351 213.939C134.857 213.939 135.251 213.852 135.531 213.679C135.811 213.492 135.951 213.246 135.951 212.939C135.951 212.686 135.891 212.452 135.771 212.239C135.651 212.026 135.457 211.779 135.191 211.499L130.671 207.039V205.299L138.071 202.399L138.691 204.379L133.151 206.499L136.751 210.139C137.591 210.966 138.011 211.919 138.011 212.999C138.011 213.919 137.691 214.666 137.051 215.239C136.411 215.812 135.511 216.099 134.351 216.099H128.891C128.757 216.099 128.691 215.752 128.691 215.059C128.691 214.312 128.757 213.939 128.891 213.939H134.351ZM157.735 212.699C157.735 213.086 157.848 213.392 158.075 213.619C158.315 213.832 158.655 213.939 159.095 213.939H159.555C159.688 213.939 159.755 214.312 159.755 215.059C159.755 215.752 159.688 216.099 159.555 216.099H159.175C158.868 216.099 158.581 216.059 158.315 215.979C158.061 215.899 157.868 215.799 157.735 215.679V215.779C157.708 216.779 157.461 217.672 156.995 218.459C156.528 219.246 155.881 219.852 155.055 220.279C154.228 220.719 153.281 220.939 152.215 220.939H151.375C149.668 220.939 148.355 220.446 147.435 219.459C146.515 218.486 146.055 217.112 146.055 215.339V211.459H148.115V215.299C148.115 217.619 149.208 218.779 151.395 218.779H152.215C153.281 218.779 154.121 218.486 154.735 217.899C155.348 217.312 155.655 216.506 155.655 215.479V209.459H157.735V212.699ZM150.295 208.979V207.019H152.695V208.979H150.295ZM164.415 213.939C164.828 213.939 165.161 213.832 165.415 213.619C165.668 213.392 165.795 213.079 165.795 212.679V209.459H167.875V212.739C167.875 213.792 167.561 214.619 166.935 215.219C166.321 215.806 165.481 216.099 164.415 216.099H159.555C159.421 216.099 159.355 215.752 159.355 215.059C159.355 214.312 159.421 213.939 159.555 213.939H164.415ZM165.195 218.439V220.359H159.755V218.439H165.195ZM168.669 218.779C169.696 218.779 170.496 218.486 171.069 217.899C171.656 217.326 171.949 216.512 171.949 215.459V209.459H174.029V212.539C174.029 213.472 174.536 213.939 175.549 213.939H175.829C175.962 213.939 176.029 214.312 176.029 215.059C176.029 215.752 175.962 216.099 175.829 216.099H175.549C175.216 216.099 174.909 216.052 174.629 215.959C174.362 215.852 174.162 215.712 174.029 215.539V215.659C174.002 216.699 173.762 217.619 173.309 218.419C172.869 219.219 172.249 219.839 171.449 220.279C170.662 220.719 169.742 220.939 168.689 220.939H168.109L167.929 218.779H168.669ZM178.224 213.939C178.651 213.939 178.991 213.832 179.244 213.619C179.511 213.392 179.644 213.079 179.644 212.679V209.459H181.724V212.599C181.724 213.492 182.184 213.939 183.104 213.939H183.784C183.918 213.939 183.984 214.306 183.984 215.039C183.984 215.746 183.918 216.099 183.784 216.099H183.024C181.838 216.099 181.051 215.739 180.664 215.019C180.198 215.739 179.384 216.099 178.224 216.099H175.824C175.691 216.099 175.624 215.752 175.624 215.059C175.624 214.312 175.691 213.939 175.824 213.939H178.224ZM181.944 205.259V207.179H176.504V205.259H181.944ZM184.273 213.939C184.713 213.939 185.026 213.852 185.213 213.679C185.413 213.492 185.513 213.206 185.513 212.819V212.119C185.513 210.839 185.866 209.826 186.573 209.079C187.293 208.332 188.266 207.959 189.493 207.959C190.72 207.959 191.66 208.319 192.313 209.039C192.966 209.746 193.293 210.766 193.293 212.099V212.559C193.293 213.052 193.393 213.406 193.593 213.619C193.806 213.832 194.12 213.939 194.533 213.939H195.033C195.166 213.939 195.233 214.312 195.233 215.059C195.233 215.752 195.166 216.099 195.033 216.099H194.533C193.373 216.099 192.613 215.726 192.253 214.979C191.973 215.352 191.58 215.632 191.073 215.819C190.566 216.006 190.013 216.099 189.413 216.099C188.733 216.099 188.16 216.006 187.693 215.819C187.226 215.619 186.886 215.346 186.673 214.999C186.433 215.386 186.12 215.666 185.733 215.839C185.36 216.012 184.873 216.099 184.273 216.099H183.793C183.66 216.099 183.593 215.752 183.593 215.059C183.593 214.312 183.66 213.939 183.793 213.939H184.273ZM191.233 212.099C191.233 211.406 191.08 210.892 190.773 210.559C190.48 210.212 190.026 210.039 189.413 210.039C188.8 210.039 188.34 210.212 188.033 210.559C187.74 210.892 187.593 211.412 187.593 212.119C187.593 212.706 187.746 213.159 188.053 213.479C188.36 213.786 188.813 213.939 189.413 213.939C190.026 213.939 190.48 213.792 190.773 213.499C191.08 213.192 191.233 212.726 191.233 212.099ZM200.483 213.939C200.99 213.939 201.383 213.852 201.663 213.679C201.943 213.492 202.083 213.246 202.083 212.939C202.083 212.686 202.023 212.452 201.903 212.239C201.783 212.026 201.59 211.779 201.323 211.499L196.803 207.039V205.299L204.203 202.399L204.823 204.379L199.283 206.499L202.883 210.139C203.723 210.966 204.143 211.919 204.143 212.999C204.143 213.919 203.823 214.666 203.183 215.239C202.543 215.812 201.643 216.099 200.483 216.099H195.023C194.89 216.099 194.823 215.752 194.823 215.059C194.823 214.312 194.89 213.939 195.023 213.939H200.483Z" fill="#E8B229"/>
<path d="M31.4797 406.299C31.4797 405.579 31.0597 405.219 30.2197 405.219H26.4197V401.459C26.4197 400.312 26.7597 399.386 27.4397 398.679C28.1331 397.972 29.0664 397.619 30.2397 397.619H32.8397L32.9797 399.699H30.2197C29.6997 399.699 29.2797 399.859 28.9597 400.179C28.6531 400.499 28.4997 400.912 28.4997 401.419V403.079H30.5797C32.5664 403.079 33.5597 404.119 33.5597 406.199C33.5597 407.052 33.3131 407.839 32.8197 408.559C32.3397 409.292 31.6731 409.872 30.8197 410.299C29.9797 410.726 29.0464 410.939 28.0197 410.939H26.4997C24.7931 410.939 23.4797 410.446 22.5597 409.459C21.6397 408.486 21.1797 407.112 21.1797 405.339V401.459H23.2397V405.299C23.2397 407.619 24.3331 408.779 26.5197 408.779H28.0197C29.0864 408.779 29.9264 408.546 30.5397 408.079C31.1664 407.626 31.4797 407.032 31.4797 406.299ZM35.1026 408.779C36.1292 408.779 36.9292 408.486 37.5026 407.899C38.0892 407.326 38.3826 406.512 38.3826 405.459V399.459H40.4626V402.539C40.4626 403.472 40.9692 403.939 41.9826 403.939H42.2626C42.3959 403.939 42.4626 404.312 42.4626 405.059C42.4626 405.752 42.3959 406.099 42.2626 406.099H41.9826C41.6492 406.099 41.3426 406.052 41.0626 405.959C40.7959 405.852 40.5959 405.712 40.4626 405.539V405.659C40.4359 406.699 40.1959 407.619 39.7426 408.419C39.3026 409.219 38.6826 409.839 37.8826 410.279C37.0959 410.719 36.1759 410.939 35.1226 410.939H34.5426L34.3626 408.779H35.1026ZM47.7579 402.739C47.7579 403.792 47.4445 404.619 46.8179 405.219C46.1912 405.806 45.3512 406.099 44.2979 406.099H42.2579C42.1245 406.099 42.0579 405.752 42.0579 405.059C42.0579 404.312 42.1245 403.939 42.2579 403.939H44.2979C44.7112 403.939 45.0445 403.832 45.2979 403.619C45.5512 403.392 45.6779 403.079 45.6779 402.679V399.459H47.7579V402.739ZM42.6579 410.399V408.439H45.0579V410.399H42.6579ZM53.9001 405.459C53.9001 406.566 53.6801 407.532 53.2401 408.359C52.8001 409.186 52.1734 409.819 51.3601 410.259C50.5601 410.712 49.6267 410.939 48.5601 410.939H47.9801L47.8001 408.779H48.5401C49.5667 408.779 50.3667 408.486 50.9401 407.899C51.5267 407.326 51.8201 406.512 51.8201 405.459V399.459H53.9001V405.459ZM60.9229 403.939C60.9895 403.939 61.0362 404.012 61.0629 404.159C61.1029 404.306 61.1229 404.606 61.1229 405.059C61.1229 405.486 61.1029 405.766 61.0629 405.899C61.0362 406.032 60.9895 406.099 60.9229 406.099H60.3229C59.2562 406.099 58.4495 405.786 57.9029 405.159C57.3562 404.532 57.0829 403.646 57.0829 402.499V393.179H59.1429V402.359C59.1429 402.906 59.2429 403.306 59.4429 403.559C59.6562 403.812 59.9895 403.939 60.4429 403.939H60.9229ZM66.3897 403.939C66.8964 403.939 67.2897 403.852 67.5697 403.679C67.8497 403.492 67.9897 403.246 67.9897 402.939C67.9897 402.686 67.9297 402.452 67.8097 402.239C67.6897 402.026 67.4964 401.779 67.2297 401.499L62.7097 397.039V395.299L70.1097 392.399L70.7297 394.379L65.1897 396.499L68.7897 400.139C69.6297 400.966 70.0497 401.919 70.0497 402.999C70.0497 403.919 69.7297 404.666 69.0897 405.239C68.4497 405.812 67.5497 406.099 66.3897 406.099H60.9297C60.7964 406.099 60.7297 405.752 60.7297 405.059C60.7297 404.312 60.7964 403.939 60.9297 403.939H66.3897ZM81.1738 400.679C82.5471 398.706 84.0205 397.719 85.5938 397.719C86.3271 397.719 86.9871 397.899 87.5738 398.259C88.1605 398.606 88.6138 399.099 88.9338 399.739C89.2671 400.366 89.4338 401.086 89.4338 401.899C89.4338 402.579 89.3138 403.159 89.0738 403.639C89.2471 403.759 89.4538 403.839 89.6938 403.879C89.9338 403.919 90.2471 403.939 90.6338 403.939H91.1138C91.2471 403.939 91.3138 404.312 91.3138 405.059C91.3138 405.752 91.2471 406.099 91.1138 406.099H90.6338C89.9805 406.099 89.4471 406.039 89.0338 405.919C88.6205 405.786 88.2538 405.552 87.9338 405.219C87.1738 405.806 86.2338 406.099 85.1138 406.099H77.6938L77.4938 403.939H79.0938V393.179H81.1738V400.679ZM85.1138 403.939C85.8205 403.939 86.3671 403.759 86.7538 403.399C87.1538 403.039 87.3538 402.539 87.3538 401.899C87.3538 401.272 87.1738 400.766 86.8138 400.379C86.4538 399.992 85.9871 399.799 85.4138 399.799C84.7605 399.799 84.0871 400.132 83.3938 400.799C82.7005 401.466 81.9071 402.512 81.0138 403.939H85.1138ZM96.6055 402.739C96.6055 403.792 96.2922 404.619 95.6655 405.219C95.0389 405.806 94.1989 406.099 93.1455 406.099H91.1055C90.9722 406.099 90.9055 405.752 90.9055 405.059C90.9055 404.312 90.9722 403.939 91.1055 403.939H93.1455C93.5589 403.939 93.8922 403.832 94.1455 403.619C94.3989 403.392 94.5255 403.079 94.5255 402.679V399.459H96.6055V402.739ZM91.5055 410.399V408.439H93.9055V410.399H91.5055ZM99.7782 393.179H101.838V406.099H99.7782V393.179ZM108.216 405.459C108.216 406.566 107.996 407.532 107.556 408.359C107.116 409.186 106.49 409.819 105.676 410.259C104.876 410.712 103.943 410.939 102.876 410.939H101.376L101.196 408.779H102.856C103.883 408.779 104.683 408.486 105.256 407.899C105.843 407.326 106.136 406.512 106.136 405.459V399.459H108.216V405.459ZM127.567 402.699C127.567 403.086 127.68 403.392 127.907 403.619C128.147 403.832 128.487 403.939 128.927 403.939H129.387C129.52 403.939 129.587 404.312 129.587 405.059C129.587 405.752 129.52 406.099 129.387 406.099H129.007C128.7 406.099 128.413 406.059 128.147 405.979C127.893 405.899 127.7 405.799 127.567 405.679V405.779C127.54 406.779 127.293 407.672 126.827 408.459C126.36 409.246 125.713 409.852 124.887 410.279C124.06 410.719 123.113 410.939 122.047 410.939H121.207C119.5 410.939 118.187 410.446 117.267 409.459C116.347 408.486 115.887 407.112 115.887 405.339V401.459H117.947V405.299C117.947 407.619 119.04 408.779 121.227 408.779H122.047C123.113 408.779 123.953 408.486 124.567 407.899C125.18 407.312 125.487 406.506 125.487 405.479V399.459H127.567V402.699ZM120.127 398.979V397.019H122.527V398.979H120.127ZM134.247 403.939C134.66 403.939 134.993 403.832 135.247 403.619C135.5 403.392 135.627 403.079 135.627 402.679V399.459H137.707V402.739C137.707 403.792 137.393 404.619 136.767 405.219C136.153 405.806 135.313 406.099 134.247 406.099H129.387C129.253 406.099 129.187 405.752 129.187 405.059C129.187 404.312 129.253 403.939 129.387 403.939H134.247ZM135.027 408.439V410.359H129.587V408.439H135.027ZM138.501 408.779C139.528 408.779 140.328 408.486 140.901 407.899C141.488 407.326 141.781 406.512 141.781 405.459V399.459H143.861V402.539C143.861 403.472 144.368 403.939 145.381 403.939H145.661C145.794 403.939 145.861 404.312 145.861 405.059C145.861 405.752 145.794 406.099 145.661 406.099H145.381C145.048 406.099 144.741 406.052 144.461 405.959C144.194 405.852 143.994 405.712 143.861 405.539V405.659C143.834 406.699 143.594 407.619 143.141 408.419C142.701 409.219 142.081 409.839 141.281 410.279C140.494 410.719 139.574 410.939 138.521 410.939H137.941L137.761 408.779H138.501ZM151.156 402.739C151.156 403.792 150.843 404.619 150.216 405.219C149.59 405.806 148.75 406.099 147.696 406.099H145.656C145.523 406.099 145.456 405.752 145.456 405.059C145.456 404.312 145.523 403.939 145.656 403.939H147.696C148.11 403.939 148.443 403.832 148.696 403.619C148.95 403.392 149.076 403.079 149.076 402.679V399.459H151.156V402.739ZM151.696 395.259V397.179H146.256V395.259H151.696ZM158.816 402.699C158.816 401.966 159.016 401.232 159.416 400.499C159.816 399.752 160.483 398.912 161.416 397.979L160.556 397.099L162.016 395.539C163.336 396.739 164.343 397.739 165.036 398.539C165.73 399.326 166.203 400.019 166.456 400.619C166.723 401.219 166.856 401.846 166.856 402.499C166.856 403.232 166.676 403.892 166.316 404.479C165.97 405.052 165.476 405.499 164.836 405.819C164.21 406.139 163.483 406.299 162.656 406.299C161.496 406.299 160.563 405.972 159.856 405.319C159.163 404.652 158.816 403.779 158.816 402.699ZM164.796 402.499C164.796 401.979 164.65 401.479 164.356 400.999C164.076 400.519 163.57 399.952 162.836 399.299C162.13 399.966 161.623 400.559 161.316 401.079C161.023 401.586 160.876 402.092 160.876 402.599C160.876 403.039 161.043 403.406 161.376 403.699C161.71 403.992 162.163 404.139 162.736 404.139C163.336 404.139 163.83 403.986 164.216 403.679C164.603 403.372 164.796 402.979 164.796 402.499ZM177.392 400.139C177.845 400.672 178.165 401.166 178.352 401.619C178.552 402.059 178.652 402.519 178.652 402.999C178.652 403.919 178.325 404.666 177.672 405.239C177.032 405.812 176.132 406.099 174.972 406.099H169.452L169.252 403.939H174.972C175.478 403.939 175.872 403.852 176.152 403.679C176.432 403.492 176.572 403.246 176.572 402.939C176.572 402.726 176.512 402.519 176.392 402.319C176.285 402.106 176.092 401.832 175.812 401.499L172.212 397.319L173.672 395.839L177.392 400.139ZM185.669 403.939C185.736 403.939 185.782 404.012 185.809 404.159C185.849 404.306 185.869 404.606 185.869 405.059C185.869 405.486 185.849 405.766 185.809 405.899C185.782 406.032 185.736 406.099 185.669 406.099H185.069C184.002 406.099 183.196 405.786 182.649 405.159C182.102 404.532 181.829 403.646 181.829 402.499V393.179H183.889V402.359C183.889 402.906 183.989 403.306 184.189 403.559C184.402 403.812 184.736 403.939 185.189 403.939H185.669ZM187.256 403.939C187.803 403.939 188.216 403.819 188.496 403.579C188.776 403.326 188.916 402.972 188.916 402.519V399.459H190.996V402.519C190.996 403.466 191.536 403.939 192.616 403.939C193.163 403.939 193.576 403.819 193.856 403.579C194.136 403.326 194.276 402.972 194.276 402.519V399.459H196.356V402.519C196.356 402.972 196.483 403.326 196.736 403.579C196.989 403.819 197.369 403.939 197.876 403.939C198.396 403.939 198.783 403.819 199.036 403.579C199.303 403.326 199.436 402.972 199.436 402.519V399.459H201.496V402.499C201.496 403.632 201.176 404.519 200.536 405.159C199.896 405.786 199.009 406.099 197.876 406.099C196.516 406.099 195.636 405.712 195.236 404.939C194.716 405.712 193.843 406.099 192.616 406.099C191.869 406.099 191.276 406.006 190.836 405.819C190.396 405.619 190.076 405.326 189.876 404.939C189.356 405.712 188.483 406.099 187.256 406.099H185.676C185.543 406.099 185.476 405.752 185.476 405.059C185.476 404.312 185.543 403.939 185.676 403.939H187.256Z" fill="#F75B46"/>
<path d="M329.579 41.055H331.021V50.099H329.579V41.055ZM335.485 47.607C335.485 48.2603 335.84 48.587 336.549 48.587H336.745C336.839 48.587 336.885 48.8483 336.885 49.371C336.885 49.8563 336.839 50.099 336.745 50.099H336.549C336.316 50.099 336.101 50.0663 335.905 50.001C335.719 49.9263 335.579 49.8283 335.485 49.707V49.791C335.467 50.519 335.299 51.163 334.981 51.723C334.673 52.283 334.239 52.717 333.679 53.025C333.129 53.333 332.485 53.487 331.747 53.487H330.697L330.571 51.975H331.733C332.452 51.975 333.012 51.7697 333.413 51.359C333.824 50.9577 334.029 50.3883 334.029 49.651V45.451H335.485V47.607ZM337.75 48.587C338.46 48.587 339.043 48.5357 339.5 48.433C339.967 48.3303 340.443 48.139 340.928 47.859L342.692 46.851C342.571 46.4123 342.398 46.1137 342.174 45.955C341.95 45.787 341.614 45.703 341.166 45.703H337.932L338.114 44.191H341.418C341.997 44.191 342.468 44.289 342.832 44.485C343.196 44.6717 343.5 44.989 343.742 45.437C343.985 45.885 344.2 46.515 344.386 47.327L341.6 49.077C340.975 49.469 340.373 49.7397 339.794 49.889C339.225 50.029 338.52 50.099 337.68 50.099H336.742C336.649 50.099 336.602 49.8563 336.602 49.371C336.602 48.8483 336.649 48.587 336.742 48.587H337.75ZM341.922 51.737V53.081H338.114V51.737H341.922ZM339.318 55.139V53.837H340.718V55.139H339.318Z" fill="#99A3A9"/>
<path d="M265.526 39.851C266.963 39.851 268.083 39.4403 268.886 38.619C269.707 37.8163 270.118 36.6777 270.118 35.203V26.803H273.03V31.115C273.03 32.4217 273.739 33.075 275.158 33.075H275.55C275.736 33.075 275.83 33.5977 275.83 34.643C275.83 35.6137 275.736 36.099 275.55 36.099H275.158C274.691 36.099 274.262 36.0337 273.87 35.903C273.496 35.7537 273.216 35.5577 273.03 35.315V35.483C272.992 36.939 272.656 38.227 272.022 39.347C271.406 40.467 270.538 41.335 269.418 41.951C268.316 42.567 267.028 42.875 265.554 42.875H264.742L264.49 39.851H265.526ZM278.903 33.075C279.5 33.075 279.976 32.9257 280.331 32.627C280.704 32.3097 280.891 31.871 280.891 31.311V26.803H283.803V31.199C283.803 32.4497 284.447 33.075 285.735 33.075H286.687C286.874 33.075 286.967 33.5883 286.967 34.615C286.967 35.6043 286.874 36.099 286.687 36.099H285.623C283.962 36.099 282.86 35.595 282.319 34.587C281.666 35.595 280.527 36.099 278.903 36.099H275.543C275.356 36.099 275.263 35.6137 275.263 34.643C275.263 33.5977 275.356 33.075 275.543 33.075H278.903ZM284.111 20.923V23.611H276.495V20.923H284.111ZM290.059 33.075C290.657 33.075 291.133 32.9257 291.487 32.627C291.861 32.3097 292.047 31.871 292.047 31.311V26.803H294.959V31.199C294.959 32.4497 295.603 33.075 296.891 33.075H297.843C298.03 33.075 298.123 33.5883 298.123 34.615C298.123 35.6043 298.03 36.099 297.843 36.099H296.779C295.118 36.099 294.017 35.595 293.475 34.587C292.822 35.595 291.683 36.099 290.059 36.099H286.699C286.513 36.099 286.419 35.6137 286.419 34.643C286.419 33.5977 286.513 33.075 286.699 33.075H290.059ZM292.523 39.375V42.063H284.907V39.375H292.523ZM287.315 46.179V43.575H290.115V46.179H287.315ZM304.659 33.075C305.238 33.075 305.705 32.9257 306.059 32.627C306.414 32.3097 306.591 31.871 306.591 31.311V26.803H309.503V31.395C309.503 32.8697 309.065 34.027 308.187 34.867C307.329 35.6883 306.153 36.099 304.659 36.099H297.855C297.669 36.099 297.575 35.6137 297.575 34.643C297.575 33.5977 297.669 33.075 297.855 33.075H304.659ZM305.751 39.375V42.063H298.135V39.375H305.751ZM310.615 39.851C312.053 39.851 313.173 39.4403 313.975 38.619C314.797 37.8163 315.207 36.6777 315.207 35.203V26.803H318.119V31.115C318.119 32.4217 318.829 33.075 320.247 33.075H320.639C320.826 33.075 320.919 33.5977 320.919 34.643C320.919 35.6137 320.826 36.099 320.639 36.099H320.247C319.781 36.099 319.351 36.0337 318.959 35.903C318.586 35.7537 318.306 35.5577 318.119 35.315V35.483C318.082 36.939 317.746 38.227 317.111 39.347C316.495 40.467 315.627 41.335 314.507 41.951C313.406 42.567 312.118 42.875 310.643 42.875H309.831L309.579 39.851H310.615ZM328.277 33.075C328.986 33.075 329.537 32.9537 329.929 32.711C330.321 32.4497 330.517 32.1043 330.517 31.675C330.517 31.3203 330.433 30.9937 330.265 30.695C330.097 30.3963 329.826 30.051 329.453 29.659L323.125 23.415V20.979L333.485 16.919L334.353 19.691L326.597 22.659L331.637 27.755C332.813 28.9123 333.401 30.247 333.401 31.759C333.401 33.047 332.953 34.0923 332.057 34.895C331.161 35.6977 329.901 36.099 328.277 36.099H320.633C320.446 36.099 320.353 35.6137 320.353 34.643C320.353 33.5977 320.446 33.075 320.633 33.075H328.277Z" fill="#F53A21"/>
<path d="M255.11 403.939C255.177 403.939 255.224 404.012 255.25 404.159C255.29 404.306 255.31 404.606 255.31 405.059C255.31 405.486 255.29 405.766 255.25 405.899C255.224 406.032 255.177 406.099 255.11 406.099H254.51C253.444 406.099 252.637 405.786 252.09 405.159C251.544 404.532 251.27 403.646 251.27 402.499V393.179H253.33V402.359C253.33 402.906 253.43 403.306 253.63 403.559C253.844 403.812 254.177 403.939 254.63 403.939H255.11ZM257.737 403.939C257.431 403.659 257.184 403.306 256.997 402.879C256.811 402.452 256.717 402.019 256.717 401.579C256.717 400.832 256.891 400.166 257.237 399.579C257.584 398.979 258.057 398.512 258.657 398.179C259.257 397.832 259.931 397.659 260.677 397.659C261.384 397.659 262.017 397.826 262.577 398.159C263.151 398.492 263.597 398.946 263.917 399.519C264.251 400.079 264.417 400.706 264.417 401.399C264.417 401.906 264.297 402.386 264.057 402.839C263.831 403.292 263.517 403.659 263.117 403.939H265.557C266.051 403.939 266.424 403.852 266.677 403.679C266.931 403.506 267.057 403.259 267.057 402.939C267.057 402.699 266.997 402.472 266.877 402.259C266.771 402.032 266.551 401.752 266.217 401.419L262.257 397.239L263.737 395.699L267.797 400.059C268.264 400.552 268.604 401.039 268.817 401.519C269.031 401.999 269.137 402.492 269.137 402.999C269.137 403.932 268.817 404.686 268.177 405.259C267.537 405.819 266.664 406.099 265.557 406.099H263.317C262.451 406.099 261.824 406.079 261.437 406.039C261.064 405.986 260.757 405.886 260.517 405.739C260.277 405.872 259.937 405.966 259.497 406.019C259.071 406.072 258.457 406.099 257.657 406.099H255.117C254.984 406.099 254.917 405.752 254.917 405.059C254.917 404.312 254.984 403.939 255.117 403.939H257.737ZM260.477 403.919C261.104 403.652 261.584 403.319 261.917 402.919C262.251 402.519 262.417 402.072 262.417 401.579C262.417 401.032 262.251 400.592 261.917 400.259C261.584 399.912 261.137 399.739 260.577 399.739C260.017 399.739 259.564 399.912 259.217 400.259C258.884 400.592 258.717 401.032 258.717 401.579C258.717 402.592 259.304 403.372 260.477 403.919ZM275.295 405.459C275.295 406.566 275.075 407.532 274.635 408.359C274.195 409.186 273.568 409.819 272.755 410.259C271.955 410.712 271.021 410.939 269.955 410.939H268.455L268.275 408.779H269.935C270.961 408.779 271.761 408.486 272.335 407.899C272.921 407.326 273.215 406.512 273.215 405.459V399.459H275.295V405.459ZM278.477 393.179H280.537V406.099H278.477V393.179ZM286.916 405.459C286.916 406.566 286.696 407.532 286.256 408.359C285.816 409.186 285.189 409.819 284.376 410.259C283.576 410.712 282.642 410.939 281.576 410.939H280.076L279.896 408.779H281.556C282.582 408.779 283.382 408.486 283.956 407.899C284.542 407.326 284.836 406.512 284.836 405.459V399.459H286.916V405.459ZM284.556 397.179V395.219H286.956V397.179H284.556ZM293.938 403.939C294.005 403.939 294.052 404.012 294.078 404.159C294.118 404.306 294.138 404.606 294.138 405.059C294.138 405.486 294.118 405.766 294.078 405.899C294.052 406.032 294.005 406.099 293.938 406.099H293.338C292.272 406.099 291.465 405.786 290.918 405.159C290.372 404.532 290.098 403.646 290.098 402.499V393.179H292.158V402.359C292.158 402.906 292.258 403.306 292.458 403.559C292.672 403.812 293.005 403.939 293.458 403.939H293.938ZM299.445 402.739C299.445 403.792 299.132 404.619 298.505 405.219C297.879 405.806 297.039 406.099 295.985 406.099H293.945C293.812 406.099 293.745 405.752 293.745 405.059C293.745 404.312 293.812 403.939 293.945 403.939H295.985C296.399 403.939 296.732 403.832 296.985 403.619C297.239 403.392 297.365 403.079 297.365 402.679V399.459H299.445V402.739ZM294.345 410.399V408.439H296.745V410.399H294.345ZM318.785 402.699C318.785 403.086 318.899 403.392 319.125 403.619C319.365 403.832 319.705 403.939 320.145 403.939H320.605C320.739 403.939 320.805 404.312 320.805 405.059C320.805 405.752 320.739 406.099 320.605 406.099H320.225C319.919 406.099 319.632 406.059 319.365 405.979C319.112 405.899 318.919 405.799 318.785 405.679V405.779C318.759 406.779 318.512 407.672 318.045 408.459C317.579 409.246 316.932 409.852 316.105 410.279C315.279 410.719 314.332 410.939 313.265 410.939H312.425C310.719 410.939 309.405 410.446 308.485 409.459C307.565 408.486 307.105 407.112 307.105 405.339V401.459H309.165V405.299C309.165 407.619 310.259 408.779 312.445 408.779H313.265C314.332 408.779 315.172 408.486 315.785 407.899C316.399 407.312 316.705 406.506 316.705 405.479V399.459H318.785V402.699ZM311.345 398.979V397.019H313.745V398.979H311.345ZM325.465 403.939C325.879 403.939 326.212 403.832 326.465 403.619C326.719 403.392 326.845 403.079 326.845 402.679V399.459H328.925V402.739C328.925 403.792 328.612 404.619 327.985 405.219C327.372 405.806 326.532 406.099 325.465 406.099H320.605C320.472 406.099 320.405 405.752 320.405 405.059C320.405 404.312 320.472 403.939 320.605 403.939H325.465ZM326.245 408.439V410.359H320.805V408.439H326.245ZM329.72 408.779C330.746 408.779 331.546 408.486 332.12 407.899C332.706 407.326 333 406.512 333 405.459V399.459H335.08V402.539C335.08 403.472 335.586 403.939 336.6 403.939H336.88C337.013 403.939 337.08 404.312 337.08 405.059C337.08 405.752 337.013 406.099 336.88 406.099H336.6C336.266 406.099 335.96 406.052 335.68 405.959C335.413 405.852 335.213 405.712 335.08 405.539V405.659C335.053 406.699 334.813 407.619 334.36 408.419C333.92 409.219 333.3 409.839 332.5 410.279C331.713 410.719 330.793 410.939 329.74 410.939H329.16L328.98 408.779H329.72ZM342.375 402.739C342.375 403.792 342.062 404.619 341.435 405.219C340.808 405.806 339.968 406.099 338.915 406.099H336.875C336.742 406.099 336.675 405.752 336.675 405.059C336.675 404.312 336.742 403.939 336.875 403.939H338.915C339.328 403.939 339.662 403.832 339.915 403.619C340.168 403.392 340.295 403.079 340.295 402.679V399.459H342.375V402.739ZM342.915 395.259V397.179H337.475V395.259H342.915ZM361.715 402.699C361.715 403.086 361.828 403.392 362.055 403.619C362.295 403.832 362.635 403.939 363.075 403.939H363.535C363.668 403.939 363.735 404.312 363.735 405.059C363.735 405.752 363.668 406.099 363.535 406.099H363.155C362.848 406.099 362.562 406.059 362.295 405.979C362.042 405.899 361.848 405.799 361.715 405.679V405.779C361.688 406.779 361.442 407.672 360.975 408.459C360.508 409.246 359.862 409.852 359.035 410.279C358.208 410.719 357.262 410.939 356.195 410.939H355.355C353.648 410.939 352.335 410.446 351.415 409.459C350.495 408.486 350.035 407.112 350.035 405.339V401.459H352.095V405.299C352.095 407.619 353.188 408.779 355.375 408.779H356.195C357.262 408.779 358.102 408.486 358.715 407.899C359.328 407.312 359.635 406.506 359.635 405.479V399.459H361.715V402.699ZM354.275 398.979V397.019H356.675V398.979H354.275ZM364.015 403.939C364.455 403.939 364.768 403.852 364.955 403.679C365.155 403.492 365.255 403.206 365.255 402.819V402.119C365.255 400.839 365.608 399.826 366.315 399.079C367.035 398.332 368.008 397.959 369.235 397.959C370.462 397.959 371.402 398.319 372.055 399.039C372.708 399.746 373.035 400.766 373.035 402.099C373.035 403.366 372.688 404.352 371.995 405.059C371.315 405.752 370.368 406.099 369.155 406.099C368.475 406.099 367.902 406.006 367.435 405.819C366.968 405.619 366.628 405.346 366.415 404.999C366.175 405.386 365.862 405.666 365.475 405.839C365.102 406.012 364.615 406.099 364.015 406.099H363.535C363.402 406.099 363.335 405.752 363.335 405.059C363.335 404.312 363.402 403.939 363.535 403.939H364.015ZM370.975 402.099C370.975 401.406 370.822 400.892 370.515 400.559C370.222 400.212 369.768 400.039 369.155 400.039C368.542 400.039 368.082 400.212 367.775 400.559C367.482 400.892 367.335 401.412 367.335 402.119C367.335 402.706 367.488 403.159 367.795 403.479C368.102 403.786 368.555 403.939 369.155 403.939C369.768 403.939 370.222 403.792 370.515 403.499C370.822 403.192 370.975 402.726 370.975 402.099ZM376.231 393.179H378.291V406.099H376.231V393.179Z" fill="#2ECC3E"/>
<path d="M264.062 221.939C262.356 221.939 261.042 221.446 260.122 220.459C259.202 219.486 258.742 218.112 258.742 216.339V212.459H260.802V216.299C260.802 218.619 261.896 219.779 264.082 219.779H264.902C265.969 219.779 266.809 219.486 267.422 218.899C268.036 218.312 268.342 217.506 268.342 216.479V210.459H270.422V216.299C270.422 217.472 270.189 218.479 269.722 219.319C269.256 220.172 268.602 220.819 267.762 221.259C266.936 221.712 265.982 221.939 264.902 221.939H264.062ZM262.982 209.979V208.019H265.382V209.979H262.982ZM273.63 204.179H275.69V217.099H273.63V204.179ZM282.068 213.539C282.068 214.472 282.575 214.939 283.588 214.939H283.868C284.001 214.939 284.068 215.312 284.068 216.059C284.068 216.752 284.001 217.099 283.868 217.099H283.588C283.255 217.099 282.948 217.052 282.668 216.959C282.401 216.852 282.201 216.712 282.068 216.539V216.659C282.041 217.699 281.801 218.619 281.348 219.419C280.908 220.219 280.288 220.839 279.488 221.279C278.701 221.719 277.781 221.939 276.728 221.939H275.228L275.048 219.779H276.708C277.735 219.779 278.535 219.486 279.108 218.899C279.695 218.326 279.988 217.512 279.988 216.459V210.459H282.068V213.539ZM288.723 214.939C289.137 214.939 289.47 214.832 289.723 214.619C289.977 214.392 290.103 214.079 290.103 213.679V210.459H292.183V213.739C292.183 214.792 291.87 215.619 291.243 216.219C290.63 216.806 289.79 217.099 288.723 217.099H283.863C283.73 217.099 283.663 216.752 283.663 216.059C283.663 215.312 283.73 214.939 283.863 214.939H288.723ZM289.503 219.439V221.359H284.063V219.439H289.503ZM295.368 204.179H297.428V217.099H295.368V204.179ZM309.724 216.459C309.724 217.566 309.504 218.532 309.064 219.359C308.624 220.186 307.998 220.819 307.184 221.259C306.384 221.712 305.451 221.939 304.384 221.939H303.804L303.624 219.779H304.364C305.391 219.779 306.191 219.486 306.764 218.899C307.351 218.326 307.644 217.512 307.644 216.459V210.459H309.724V216.459ZM320.247 211.139C320.7 211.672 321.02 212.166 321.207 212.619C321.407 213.059 321.507 213.519 321.507 213.999C321.507 214.919 321.18 215.666 320.527 216.239C319.887 216.812 318.987 217.099 317.827 217.099H312.307L312.107 214.939H317.827C318.334 214.939 318.727 214.852 319.007 214.679C319.287 214.492 319.427 214.246 319.427 213.939C319.427 213.726 319.367 213.519 319.247 213.319C319.14 213.106 318.947 212.832 318.667 212.499L315.067 208.319L316.527 206.839L320.247 211.139ZM340.852 213.699C340.852 214.086 340.965 214.392 341.192 214.619C341.432 214.832 341.772 214.939 342.212 214.939H342.672C342.805 214.939 342.872 215.312 342.872 216.059C342.872 216.752 342.805 217.099 342.672 217.099H342.292C341.985 217.099 341.699 217.059 341.432 216.979C341.179 216.899 340.985 216.799 340.852 216.679V216.779C340.825 217.779 340.579 218.672 340.112 219.459C339.645 220.246 338.999 220.852 338.172 221.279C337.345 221.719 336.399 221.939 335.332 221.939H334.492C332.785 221.939 331.472 221.446 330.552 220.459C329.632 219.486 329.172 218.112 329.172 216.339V212.459H331.232V216.299C331.232 218.619 332.325 219.779 334.512 219.779H335.332C336.399 219.779 337.239 219.486 337.852 218.899C338.465 218.312 338.772 217.506 338.772 216.479V210.459H340.852V213.699ZM333.412 209.979V208.019H335.812V209.979H333.412ZM346.412 214.939C346.839 214.939 347.179 214.832 347.432 214.619C347.699 214.392 347.832 214.079 347.832 213.679V210.459H349.892V213.599C349.892 214.492 350.352 214.939 351.272 214.939H351.972C352.105 214.939 352.172 215.306 352.172 216.039C352.172 216.746 352.105 217.099 351.972 217.099H351.192C350.019 217.099 349.239 216.739 348.852 216.019C348.385 216.739 347.572 217.099 346.412 217.099H342.672C342.539 217.099 342.472 216.752 342.472 216.059C342.472 215.312 342.539 214.939 342.672 214.939H346.412ZM347.792 219.439V221.359H342.352V219.439H347.792ZM352.629 214.939C353.042 214.939 353.375 214.832 353.629 214.619C353.882 214.392 354.009 214.079 354.009 213.679V204.179H356.089V213.739C356.089 214.792 355.775 215.619 355.149 216.219C354.535 216.806 353.695 217.099 352.629 217.099H351.969C351.835 217.099 351.769 216.752 351.769 216.059C351.769 215.312 351.835 214.939 351.969 214.939H352.629ZM367.03 216.379C367.03 217.526 366.816 218.512 366.39 219.339C365.963 220.179 365.356 220.819 364.57 221.259C363.796 221.712 362.883 221.939 361.83 221.939H359.25L359.07 219.779H361.89C362.836 219.779 363.583 219.539 364.13 219.059C364.676 218.579 364.956 217.926 364.97 217.099H363.25C361.836 217.099 360.823 216.812 360.21 216.239C359.596 215.652 359.29 214.739 359.29 213.499C359.29 212.646 359.45 211.892 359.77 211.239C360.103 210.586 360.563 210.079 361.15 209.719C361.75 209.346 362.436 209.159 363.21 209.159C364.396 209.159 365.33 209.559 366.01 210.359C366.69 211.146 367.03 212.226 367.03 213.599V216.379ZM361.37 213.399C361.37 213.959 361.516 214.359 361.81 214.599C362.103 214.826 362.616 214.939 363.35 214.939H364.97V213.639C364.97 212.852 364.81 212.259 364.49 211.859C364.17 211.446 363.71 211.239 363.11 211.239C362.563 211.239 362.136 211.439 361.83 211.839C361.523 212.226 361.37 212.746 361.37 213.399ZM370.231 204.179H372.291V217.099H370.231V204.179Z" fill="#466DF7"/>
<path d="M313.083 343.432C313.083 341.821 314.389 340.516 316 340.516C317.611 340.516 318.917 341.821 318.917 343.432C318.917 345.043 317.611 346.349 316 346.349C314.389 346.349 313.083 345.043 313.083 343.432Z" fill="#2ECC3E"/>
<path fill-rule="evenodd" clip-rule="evenodd" d="M303.8 329.53C303.8 325.932 306.716 323.016 310.314 323.016H322.368C325.589 323.016 328.201 325.627 328.201 328.849C328.201 330.138 329.246 331.182 330.534 331.182H331.909C335.607 331.182 338.86 334.052 338.709 337.985C338.516 343.028 337.537 351.116 333.609 358.274C332.544 360.214 331.122 362.12 329.585 363.896L329.469 364.03C327.258 366.585 325.414 368.715 323.432 370.167C321.3 371.729 319.025 372.507 316 372.507C312.976 372.507 310.7 371.729 308.568 370.167C306.586 368.715 304.742 366.585 302.531 364.03L302.416 363.896C300.878 362.12 299.457 360.214 298.392 358.274C294.59 351.347 293.548 344.033 293.311 339.341C293.112 335.389 296.388 332.543 300.065 332.543H300.786C302.45 332.543 303.8 331.194 303.8 329.53ZM316 337.016C312.456 337.016 309.583 339.888 309.583 343.432C309.583 346.369 311.557 348.846 314.25 349.607V357.432C314.25 358.399 315.034 359.182 316 359.182C316.967 359.182 317.75 358.399 317.75 357.432V349.607C320.443 348.846 322.417 346.369 322.417 343.432C322.417 339.888 319.544 337.016 316 337.016Z" fill="#2ECC3E"/>
<path d="M315.377 143.678C315.585 143.017 316.415 143.017 316.623 143.678C317.166 145.403 318.745 146.623 320.585 146.623C320.764 146.623 320.879 146.677 320.965 146.745C321.062 146.823 321.155 146.95 321.208 147.119C321.315 147.46 321.223 147.774 320.951 147.978C319.498 149.069 318.917 150.97 319.457 152.687C319.575 153.064 319.441 153.365 319.2 153.546C319.077 153.639 318.948 153.679 318.84 153.682C318.748 153.685 318.624 153.663 318.467 153.546C317 152.445 315 152.445 313.533 153.546C313.376 153.663 313.252 153.685 313.159 153.682C313.052 153.679 312.923 153.639 312.8 153.546C312.559 153.365 312.424 153.064 312.543 152.687C313.083 150.97 312.502 149.069 311.049 147.978C310.777 147.774 310.685 147.46 310.792 147.119C310.845 146.95 310.938 146.823 311.035 146.745C311.121 146.677 311.236 146.623 311.415 146.623C313.255 146.623 314.834 145.403 315.377 143.678Z" fill="#466DF7"/>
<path fill-rule="evenodd" clip-rule="evenodd" d="M307.188 128.672C309.212 128.015 311.641 128.015 315.623 128.016H316.378C320.359 128.015 322.789 128.015 324.813 128.672C328.897 130 332.1 133.202 333.427 137.286L333.447 137.349H334.129C342.775 137.349 346.489 148.321 339.621 153.573L339.596 153.592L333.853 157.667C333.639 157.819 333.417 157.96 333.189 158.089C333.164 158.155 333.139 158.22 333.113 158.284C332.517 159.765 331.353 161.542 330.234 162.68C328.41 164.535 326.523 165.358 323.509 166.671L323.309 166.759C322.01 167.325 320.698 167.838 319.479 168.212C318.902 168.39 318.319 168.545 317.75 168.657V174.682H325.334C326.3 174.682 327.084 175.466 327.084 176.432C327.084 177.399 326.3 178.182 325.334 178.182H306.667C305.7 178.182 304.917 177.399 304.917 176.432C304.917 175.466 305.7 174.682 306.667 174.682H314.25V168.657C313.681 168.545 313.099 168.39 312.521 168.212C311.303 167.838 309.99 167.325 308.692 166.759L308.492 166.671C305.478 165.358 303.59 164.535 301.766 162.68C300.647 161.542 299.484 159.765 298.888 158.284C298.861 158.218 298.835 158.151 298.809 158.084C298.586 157.96 298.369 157.824 298.161 157.676L292.405 153.592L292.38 153.573C285.512 148.321 289.226 137.349 297.872 137.349H298.553L298.574 137.286C299.901 133.202 303.103 130 307.188 128.672ZM297.994 140.849H297.872C292.583 140.849 290.305 147.549 294.483 150.775L297.963 153.244C297.917 152.119 297.917 150.861 297.917 149.403L297.917 145.903C297.917 143.852 297.917 142.214 297.994 140.849ZM334.037 153.245L337.518 150.775C341.696 147.549 339.418 140.849 334.129 140.849H334.006C334.084 142.214 334.084 143.852 334.084 145.903L334.084 149.405C334.084 150.863 334.084 152.12 334.037 153.245ZM319.962 142.628C318.727 138.701 313.273 138.701 312.038 142.628C311.935 142.955 311.664 143.123 311.415 143.123C307.272 143.123 305.815 148.427 308.948 150.777C309.185 150.955 309.31 151.301 309.204 151.637C308.602 153.553 309.377 155.353 310.699 156.345C312.029 157.343 313.996 157.574 315.634 156.345C315.856 156.178 316.144 156.178 316.366 156.345C318.004 157.574 319.971 157.343 321.301 156.345C322.623 155.353 323.398 153.553 322.795 151.637C322.69 151.301 322.815 150.955 323.052 150.777C326.185 148.427 324.728 143.123 320.585 143.123C320.336 143.123 320.065 142.955 319.962 142.628Z" fill="#466DF7"/>
<g clip-path="url(#clip0_36_1240)">
<path d="M101.157 320.867C102.021 320.435 103.072 320.785 103.505 321.65L103.628 321.896C104.531 323.703 104.531 325.829 103.628 327.635L103.505 327.882C103.072 328.746 102.021 329.097 101.157 328.664C100.292 328.232 99.942 327.181 100.374 326.316L100.497 326.07C100.908 325.249 100.908 324.282 100.497 323.461L100.374 323.215C99.942 322.351 100.292 321.299 101.157 320.867Z" fill="#F75B46"/>
<path d="M119.824 320.867C120.688 320.435 121.739 320.785 122.171 321.65L122.295 321.896C123.198 323.703 123.198 325.829 122.295 327.635L122.171 327.882C121.739 328.746 120.688 329.097 119.824 328.664C118.959 328.232 118.609 327.181 119.041 326.316L119.164 326.07C119.575 325.249 119.575 324.282 119.164 323.461L119.041 323.215C118.609 322.351 118.959 321.299 119.824 320.867Z" fill="#F75B46"/>
<path d="M112.055 320.867C112.92 321.299 113.27 322.351 112.838 323.215L112.715 323.461C112.304 324.282 112.304 325.249 112.715 326.07L112.838 326.316C113.27 327.181 112.92 328.232 112.055 328.664C111.191 329.097 110.14 328.746 109.708 327.882L109.584 327.635C108.681 325.829 108.681 323.703 109.584 321.896L109.708 321.65C110.14 320.785 111.191 320.435 112.055 320.867Z" fill="#F75B46"/>
<path fill-rule="evenodd" clip-rule="evenodd" d="M111.67 330.016C115.763 330.015 118.25 330.015 120.241 330.649C125.137 332.209 128.712 336.43 129.447 341.516C129.568 342.356 129.572 343.235 129.498 344.221C133.421 345.085 136.356 348.583 136.356 352.766C136.356 357.598 132.439 361.516 127.606 361.516C127.322 361.516 127.04 361.502 126.762 361.475L126.56 362.687C126.306 364.212 126.151 365.144 125.905 365.961C124.38 371.036 120.01 374.738 114.753 375.408C113.907 375.516 112.963 375.516 111.417 375.516H111.129C109.583 375.516 108.639 375.516 107.792 375.408C102.536 374.738 98.1659 371.036 96.6405 365.961C96.3949 365.144 96.2396 364.212 95.9856 362.687L93.8834 350.074C93.2099 346.037 92.8006 343.584 93.0991 341.516C93.8332 336.43 97.4082 332.209 102.305 330.649C103.032 330.417 103.804 330.274 104.665 330.183V341.099H104.082C102.793 341.099 101.749 342.144 101.749 343.432V348.099C101.749 349.388 102.793 350.432 104.082 350.432H108.749C110.037 350.432 111.082 349.388 111.082 348.099V343.432C111.082 342.144 110.037 341.099 108.749 341.099H108.165L108.165 330.026C109.071 330.016 110.089 330.016 111.241 330.016L111.67 330.016ZM127.34 358.009C127.428 358.014 127.517 358.016 127.606 358.016C130.506 358.016 132.856 355.665 132.856 352.766C132.856 350.366 131.247 348.343 129.048 347.716C128.919 348.53 128.769 349.433 128.601 350.439L127.34 358.009Z" fill="#F75B46"/>
</g>
<g clip-path="url(#clip1_36_1240)">
<path d="M100.431 134.379L107.377 155.708C107.394 155.76 107.413 155.812 107.435 155.862V160.566C107.435 161.532 108.218 162.316 109.185 162.316C110.151 162.316 110.935 161.532 110.935 160.566V133.456C111.624 133.15 112.373 132.975 113.164 132.869C114.552 132.682 116.3 132.682 118.397 132.682L129.148 132.682C135.842 132.682 141.268 138.109 141.268 144.803C141.268 146.743 140.155 148.512 138.406 149.352L137.268 149.898C134.583 151.187 134.583 155.011 137.268 156.3L138.406 156.846C140.155 157.686 141.268 159.455 141.268 161.395C141.268 168.089 135.842 173.516 129.148 173.516H109.189C110.153 173.514 110.935 172.731 110.935 171.766V168.966C110.935 167.999 110.151 167.216 109.185 167.216C108.218 167.216 107.435 167.999 107.435 168.966V171.766C107.435 172.73 108.215 173.513 109.179 173.516L101.913 173.516C97.8459 173.516 94.0909 171.335 92.0757 167.802L91.6385 167.035C91.4482 166.702 91.3015 166.345 91.2021 165.974C90.7556 164.307 91.3043 162.533 92.6133 161.409L93.8382 160.358C96.0987 158.418 95.109 154.724 92.1811 154.174L90.9414 153.941C89.0341 153.582 87.5012 152.162 86.9989 150.287C85.2664 143.822 89.1035 137.175 95.5693 135.443L95.6591 135.419C97.2251 134.999 98.5317 134.649 99.6173 134.478C99.891 134.434 100.162 134.4 100.431 134.379Z" fill="#E8B229"/>
</g>
<path d="M262 232.099H371" stroke="#466DF7" stroke-width="4" stroke-linecap="round"/>
<path d="M252 423.099L380 423.099" stroke="#2ECC3E" stroke-width="4" stroke-linecap="round"/>
<path d="M25.0001 232.099L203 232.099" stroke="#E8B229" stroke-width="4" stroke-linecap="round"/>
<path d="M26.0001 423.099H203" stroke="#F75B46" stroke-width="4" stroke-linecap="round"/>
<defs>
<clipPath id="clip0_36_1240">
<rect width="56" height="56" fill="white" transform="translate(86.0001 320.099)"/>
</clipPath>
<clipPath id="clip1_36_1240">
<rect width="56" height="56" fill="white" transform="translate(86.0001 125.099)"/>
</clipPath>
</defs>
</svg>
